<svg width="425" height="216" viewBox="0 0 425 216" fill="none" xmlns="http://www.w3.org/2000/svg">
  <path opacity="0.7" d="M422.437 125.428C421.299 190.62 343.928 144.946 227.544 142.915C111.16 140.883 -0.0148327 183.266 1.12309 118.074C2.261 52.8831 97.533 1.64687 213.841 3.67703C330.149 5.7072 423.576 60.1947 422.437 125.428Z" fill="#EFF2FE"/>
  <path d="M328.2 178.376C326.59 178.108 324.846 178.578 323.571 179.651C322.23 180.724 321.492 182.334 321.492 184.012C321.492 186.091 322.632 188.037 324.444 189.043C325.316 189.513 326.255 189.781 327.194 189.781C327.865 189.781 328.603 189.647 329.207 189.379C330.817 188.775 332.025 187.567 332.628 185.957C333.232 184.347 333.031 182.603 332.159 181.127C331.287 179.651 329.878 178.645 328.2 178.376ZM331.689 185.622C331.219 186.896 330.213 187.97 328.871 188.439C327.597 188.909 326.121 188.842 324.913 188.171C323.437 187.299 322.498 185.756 322.498 184.012C322.498 182.67 323.102 181.328 324.175 180.456C325.249 179.517 326.657 179.181 327.999 179.383C329.408 179.584 330.549 180.456 331.287 181.664C332.025 182.871 332.159 184.347 331.689 185.622Z" fill="#B1C0FB"/>
  <path d="M337.325 187.568C338.331 184.616 337.996 181.329 336.386 178.578C334.775 175.828 332.092 173.949 329.006 173.412C325.92 172.876 322.7 173.748 320.284 175.828C317.869 177.907 316.46 180.859 316.46 184.012C316.46 187.836 318.607 191.526 321.962 193.405C323.572 194.277 325.316 194.746 327.127 194.746C328.402 194.746 329.744 194.478 330.951 194.008C333.97 192.868 336.318 190.52 337.325 187.568ZM322.431 192.532C319.412 190.788 317.467 187.501 317.467 184.012C317.467 181.195 318.741 178.511 320.955 176.633C322.767 175.09 324.981 174.284 327.262 174.284C327.798 174.284 328.335 174.352 328.872 174.419C331.689 174.888 334.105 176.633 335.581 179.115C336.989 181.597 337.325 184.549 336.386 187.232C335.446 189.916 333.3 192.063 330.616 193.069C327.865 194.143 324.914 193.941 322.431 192.532Z" fill="#B1C0FB"/>
  <path d="M339.471 204.675C344.301 201.79 347.991 197.295 349.869 191.995C351.748 186.695 351.681 180.859 349.735 175.559C347.722 170.326 343.965 165.898 339.068 163.081C334.171 160.33 328.468 159.324 322.9 160.33C317.332 161.336 312.3 164.288 308.677 168.582C305.122 172.875 303.176 178.309 303.109 184.012V184.414C303.243 190.05 305.323 195.484 309.013 199.778C312.702 204.004 317.801 206.889 323.369 207.761C324.644 207.962 325.919 208.097 327.193 208.097C331.487 208.097 335.781 206.956 339.471 204.675ZM309.818 199.107C306.262 195.014 304.249 189.782 304.182 184.414V184.012C304.182 178.578 306.128 173.345 309.549 169.118C313.038 164.959 317.868 162.141 323.168 161.202C328.468 160.263 333.969 161.202 338.665 163.886C343.362 166.569 346.984 170.863 348.863 175.894C350.741 180.993 350.808 186.561 348.997 191.66C347.186 196.692 343.63 201.052 339.001 203.803C334.372 206.553 328.938 207.627 323.571 206.755C318.271 205.883 313.373 203.199 309.818 199.107Z" fill="#B1C0FB"/>
  <path d="M178.857 124.438C177.918 124.304 176.978 124.371 176.039 124.371C175.972 124.371 175.905 124.371 175.838 124.371C175.435 123.23 174.496 122.358 173.02 122.023C171.947 121.754 170.873 121.754 169.867 121.754H168.928C167.854 121.754 166.714 121.754 165.641 121.955C164.098 122.224 163.024 123.029 162.487 124.169C162.286 124.169 162.085 124.102 161.951 124.102C159.938 123.834 157.858 123.633 155.846 124.035C154.638 124.304 153.833 124.907 153.632 125.847C153.363 127.121 154.168 128.798 155.376 129.402C155.98 129.671 156.651 129.738 157.322 129.738C157.456 129.738 157.59 129.738 157.523 129.939H157.724C159.536 129.939 160.944 129.805 162.353 129.671C162.554 130.61 162.957 131.616 164.03 132.153C165.171 132.757 166.58 132.891 167.922 132.891C168.659 132.891 169.397 132.824 170.135 132.824L170.806 132.757C172.148 132.69 173.825 132.622 175.033 131.683C175.771 131.147 176.039 130.341 176.173 129.469C176.24 129.469 176.308 129.469 176.375 129.536C177.381 129.671 179.192 129.872 180.199 129.134C181.004 128.53 180.937 127.39 180.87 126.987C180.735 125.444 179.997 124.572 178.857 124.438ZM165.775 122.895C166.781 122.693 167.854 122.693 168.861 122.693H169.867C170.806 122.693 171.813 122.693 172.752 122.962C173.49 123.163 174.362 123.566 174.832 124.371C173.959 124.371 173.154 124.371 172.215 124.371C169.666 124.371 167.049 124.438 164.5 124.304C164.165 124.304 163.896 124.304 163.561 124.236C164.098 123.364 165.238 123.029 165.775 122.895ZM157.724 128.731C157.053 128.731 156.382 128.798 155.846 128.53C155.041 128.195 154.437 126.92 154.638 126.115C154.839 125.444 155.51 125.176 156.114 125.042C156.785 124.907 157.59 124.84 158.328 124.84C158.663 124.84 159.066 124.84 159.401 124.907C159.133 126.182 159.2 127.457 159.536 128.731C159.066 128.731 158.529 128.731 157.993 128.731H157.724ZM174.429 130.878C173.49 131.616 172.014 131.683 170.739 131.75L170.068 131.817C168.19 131.952 166.11 132.019 164.5 131.281C163.829 131.012 163.494 130.409 163.292 129.469C163.427 129.402 163.494 129.335 163.628 129.268C163.829 129.134 163.963 128.933 164.03 128.798C164.098 128.664 164.165 128.597 164.232 128.53C164.366 128.396 164.567 128.396 164.768 128.396C165.573 128.396 166.446 128.396 167.251 128.396C167.787 128.396 168.324 128.396 168.861 128.396C169.33 128.396 169.733 128.396 170.203 128.396C171.343 128.329 172.484 128.329 173.624 128.396H173.758C174.027 128.396 174.362 128.396 174.496 128.53C174.496 128.53 174.496 128.597 174.563 128.664C174.697 128.798 174.765 128.866 174.899 129C174.966 129.067 175.1 129.134 175.167 129.201C175.1 129.939 174.899 130.476 174.429 130.878ZM179.863 128.329C179.259 128.798 177.918 128.731 176.844 128.53C176.576 128.463 176.308 128.396 176.039 128.329C175.972 128.262 175.972 128.262 175.905 128.262H175.838C175.771 128.262 175.771 128.195 175.704 128.128C175.637 127.993 175.57 127.859 175.435 127.792C175.033 127.457 174.563 127.39 174.161 127.39H174.027C172.819 127.255 171.611 127.323 170.471 127.323C170.001 127.323 169.599 127.323 169.129 127.323C168.592 127.323 168.056 127.323 167.519 127.323C166.714 127.323 165.842 127.255 164.97 127.323C164.701 127.323 164.232 127.323 163.896 127.591C163.695 127.792 163.561 127.993 163.427 128.128C163.36 128.262 163.292 128.329 163.225 128.396C163.091 128.463 162.89 128.53 162.622 128.53C162.018 128.597 161.347 128.664 160.609 128.731C160.341 127.524 160.274 126.249 160.475 125.042C161.011 125.109 161.481 125.109 162.085 125.176C162.286 125.176 162.42 125.176 162.622 125.243C162.622 125.243 162.622 125.243 162.689 125.243C162.756 125.243 162.89 125.243 162.957 125.243C163.561 125.31 164.165 125.31 164.701 125.377C167.318 125.511 169.934 125.511 172.484 125.444C173.49 125.444 174.429 125.444 175.435 125.444C175.771 125.444 176.039 125.444 176.375 125.444C177.247 125.377 178.186 125.377 178.991 125.511C179.461 125.578 179.997 125.847 180.132 127.188C180.199 127.792 180.064 128.128 179.863 128.329Z" fill="#B1C0FB"/>
  <path d="M81.6512 178.376C80.0411 178.108 78.3639 178.578 77.0221 179.651C75.6803 180.724 74.9424 182.334 74.9424 184.012C74.9424 186.091 76.0829 188.037 77.8943 189.043C78.7664 189.513 79.7056 189.781 80.6449 189.781C81.3828 189.781 82.0537 189.647 82.6575 189.379C84.2676 188.775 85.5423 187.567 86.079 185.957C86.6828 184.347 86.4815 182.603 85.6094 181.127C84.7372 179.651 83.3284 178.645 81.6512 178.376ZM85.1398 185.622C84.6701 186.896 83.6638 187.97 82.3221 188.439C81.0474 188.909 79.5714 188.842 78.3639 188.171C76.8879 187.366 75.9487 185.689 75.9487 184.012C75.9487 182.67 76.5525 181.328 77.6259 180.456C78.6993 179.517 80.1082 179.181 81.4499 179.383C82.8588 179.584 83.9993 180.456 84.7372 181.664C85.4752 182.871 85.6094 184.347 85.1398 185.622Z" fill="#B1C0FB"/>
  <path d="M82.521 173.413C79.435 172.943 76.2819 173.815 73.8667 175.828C71.3844 177.907 69.9756 180.859 69.9756 184.012C69.9756 187.904 72.1224 191.526 75.4768 193.405C77.0198 194.277 78.7641 194.747 80.5755 194.747C81.9172 194.747 83.1919 194.478 84.4666 194.009C87.4855 192.868 89.7665 190.52 90.8399 187.568C91.8463 184.616 91.5108 181.329 89.9007 178.578C88.2906 175.828 85.6071 173.949 82.521 173.413ZM89.9007 187.233C88.9615 189.916 86.8818 192.063 84.1311 193.069C81.3805 194.143 78.4287 193.941 75.9464 192.533C72.9275 190.788 70.9819 187.568 70.9819 184.012C70.9819 181.195 72.2566 178.511 74.5376 176.566C76.7515 174.754 79.6363 173.949 82.3869 174.419C85.2046 174.889 87.6197 176.633 89.0957 179.115C90.5716 181.597 90.8399 184.549 89.9007 187.233Z" fill="#B1C0FB"/>
  <path d="M103.318 175.559C101.306 170.326 97.5486 165.831 92.6512 163.081C87.7538 160.33 82.0513 159.324 76.483 160.33C70.9147 161.336 65.8831 164.288 62.2604 168.582C58.6376 172.875 56.6921 178.309 56.625 184.012V184.414C56.7592 190.05 58.8389 195.484 62.5287 199.778C66.2186 204.004 71.3173 206.889 76.8856 207.761C78.1602 207.962 79.4349 208.097 80.7096 208.097C85.0032 208.097 89.2297 206.956 93.0538 204.675C97.8841 201.79 101.574 197.295 103.452 191.995C105.331 186.628 105.264 180.792 103.318 175.559ZM92.45 203.803C87.8209 206.553 82.3197 207.627 77.0197 206.755C71.6527 205.883 66.8224 203.199 63.2667 199.107C59.711 195.014 57.6984 189.782 57.6313 184.414V184.012C57.6984 178.578 59.5769 173.345 62.9984 169.118C66.4869 164.959 71.3173 162.141 76.6172 161.202C81.9172 160.263 87.4184 161.202 92.1145 163.886C96.8107 166.569 100.433 170.863 102.312 175.894C104.19 180.993 104.257 186.561 102.446 191.66C100.635 196.759 97.079 201.052 92.45 203.803Z" fill="#B1C0FB"/>
  <path d="M144.916 71.0361H144.58C141.695 71.2374 138.609 71.707 135.121 72.5792C129.351 74.0551 124.185 76.4702 119.691 79.8246C117.41 81.5018 115.129 83.5145 112.512 86.0638L112.042 86.5334C110.298 88.2777 108.487 90.022 107.346 92.1688C106.541 93.6448 106.273 94.9865 106.474 96.127C106.743 97.3346 107.615 98.1396 109.158 98.4751C110.969 98.8776 112.848 99.0118 114.726 99.0789C115.33 99.0789 116.001 99.0789 116.604 99.146L130.022 100.085C132.504 100.286 135.389 100.488 138.14 100.488C140.421 100.488 143.037 100.488 145.184 99.4814C148.74 97.8713 149.276 93.9131 149.679 90.9612L149.813 90.2233C150.148 87.2714 150.551 84.2525 150.819 81.3006L150.886 80.7639C151.088 78.4158 151.289 76.0006 150.752 73.6526C150.551 72.8475 150.216 72.2437 149.746 71.8412C148.471 70.8349 146.392 70.969 144.916 71.0361ZM149.008 72.7133C149.276 72.9817 149.545 73.3842 149.679 73.988C150.216 76.1348 150.014 78.4829 149.813 80.7639L149.746 81.3006C149.545 84.2525 149.142 87.2714 148.74 90.1562L148.673 90.76C148.337 93.5106 147.867 97.1333 144.781 98.5422C142.836 99.4143 140.354 99.4143 138.14 99.4143C135.389 99.4143 132.571 99.2801 130.089 99.0789L116.672 98.1396C116.001 98.0726 115.397 98.0055 114.726 98.0055C112.915 97.9384 111.036 97.8713 109.359 97.4688C107.883 97.0662 107.548 96.3954 107.481 95.9257C107.279 95.0536 107.548 93.9131 108.218 92.6384C109.225 90.6258 111.036 88.9486 112.713 87.2714L113.183 86.8018C115.799 84.2524 118.013 82.3069 120.294 80.6297C124.655 77.3424 129.754 74.9943 135.389 73.5855C138.811 72.7804 141.83 72.2437 144.647 72.1095H144.983C145.385 72.0424 145.922 72.0424 146.392 72.0424C147.398 72.0424 148.404 72.1766 149.008 72.7133Z" fill="#B1C0FB"/>
  <path d="M304.584 135.038C304.785 135.105 304.919 135.105 305.12 135.105C306.059 135.105 307.133 134.837 307.804 133.965C308.542 133.092 308.408 131.885 307.535 131.147C306.596 130.342 304.718 130.074 303.443 130.677C302.504 131.08 302.034 131.751 302.034 132.69C302.034 134.099 303.376 134.904 304.584 135.038ZM303.778 131.549C304.718 131.147 306.194 131.348 306.797 131.885C307.2 132.22 307.401 132.757 306.999 133.294C306.462 133.965 305.456 134.099 304.718 134.032C304.114 133.965 303.04 133.495 303.04 132.69C303.04 132.22 303.309 131.818 303.778 131.549Z" fill="#B1C0FB"/>
  <path d="M376.901 152.883C376.767 152.95 376.7 153.017 376.566 153.084C376.431 153.151 376.297 153.218 376.23 153.352C374.419 154.828 373.681 157.243 374.352 159.592C375.492 163.617 379.719 165.831 383.342 166.502C384.348 166.703 385.22 166.77 386.092 166.77C386.629 166.77 387.166 166.703 387.635 166.703C389.916 166.367 391.526 164.757 391.996 162.275C392.533 159.457 391.325 156.841 388.507 154.761C385.22 152.346 380.323 150.803 376.901 152.883ZM375.291 159.256C374.754 157.311 375.425 155.298 376.901 154.09C379.518 153.822 382.872 154.493 384.75 156.841C386.226 158.652 386.159 161 384.549 162.409C382.671 164.153 379.383 163.617 377.169 162.342C376.297 161.47 375.626 160.464 375.291 159.256ZM387.903 155.566C389.648 156.841 391.593 158.988 390.99 162.074C390.587 164.153 389.379 165.428 387.501 165.697C386.36 165.831 385.019 165.764 383.543 165.495C382.469 165.294 381.262 164.891 380.188 164.422C380.591 164.489 380.993 164.489 381.396 164.489C382.805 164.489 384.214 164.086 385.153 163.147C387.166 161.336 387.3 158.451 385.488 156.17C384.079 154.426 381.798 153.285 379.316 153.017C379.719 152.95 380.188 152.883 380.658 152.883C383.14 152.883 385.958 154.023 387.903 155.566Z" fill="#B1C0FB"/>
  <path d="M402.936 172.54C403.338 171.936 403.539 171.265 403.606 170.595C403.674 169.521 403.606 168.381 403.539 167.307C403.472 166.838 403.472 166.368 403.472 165.898C403.472 165.496 403.472 165.026 403.472 164.557C403.472 162.879 403.472 161.202 403.003 159.592C403.003 159.525 403.003 159.525 403.07 159.458C403.07 159.257 403.003 159.123 402.868 158.988C402.801 158.854 402.801 158.72 402.734 158.653C402.533 158.183 402.533 157.58 402.466 156.976C402.399 156.104 402.332 155.299 401.862 154.493C401.46 153.823 400.789 153.286 400.185 152.749C400.051 152.615 399.85 152.481 399.715 152.347C399.112 151.81 398.575 151.206 398.172 150.669C398.239 150.602 398.374 150.602 398.441 150.535C398.642 150.334 398.776 150.2 398.843 149.999C398.91 149.931 398.91 149.864 398.977 149.797C399.246 149.261 399.112 148.523 399.044 147.986C398.977 147.852 398.977 147.718 398.977 147.583V147.449C398.91 146.376 398.843 145.302 398.508 144.229C398.038 142.619 396.495 142.082 395.019 142.216C395.019 142.149 394.952 142.082 394.952 142.082C394.751 141.747 394.483 141.478 394.147 141.21C393.946 141.009 393.677 140.875 393.476 140.74C393.409 140.606 393.275 140.539 393.141 140.472H393.074C392.671 140.204 392.202 140.002 391.799 139.801H391.732C391.665 139.734 391.598 139.734 391.531 139.667C390.86 139.332 390.189 138.996 389.585 138.594C389.518 138.527 389.451 138.459 389.384 138.459C389.384 138.459 389.317 138.459 389.317 138.392C389.115 138.258 388.981 138.057 388.78 137.923C388.579 137.721 388.445 137.52 388.243 137.386C388.042 137.185 387.908 136.916 387.707 136.715C387.707 136.648 387.64 136.648 387.64 136.581C387.64 136.514 387.64 136.447 387.64 136.38C387.64 136.111 387.438 135.977 387.17 135.91C387.036 135.776 386.969 135.575 386.834 135.44C386.7 135.172 386.499 134.904 386.298 134.635C385.962 134.166 385.694 133.763 385.359 133.361C384.553 132.287 383.681 131.348 382.876 130.61C381.065 128.866 378.851 127.323 376.033 125.713C375.899 125.646 375.832 125.579 375.698 125.511C375.564 125.444 375.497 125.377 375.362 125.377C375.161 125.243 374.96 125.176 374.826 125.109C374.356 124.841 373.886 124.639 373.417 124.371C367.849 121.62 361.945 119.742 357.45 118.333C352.351 116.857 347.118 115.448 342.087 114.174C340.544 113.771 339.068 113.369 337.525 112.966C334.238 112.094 331.487 111.624 328.938 111.49C326.522 111.289 324.04 111.356 321.558 111.423C321.021 110.752 320.35 110.215 319.612 109.679C314.849 106.257 309.885 102.97 305.054 99.8168L302.304 98.0054C297.205 94.651 291.771 91.2296 285.666 87.4726C279.762 83.7828 274.798 80.898 270.101 78.3487L249.841 67.2792L249.237 66.9437C247.493 66.0045 245.614 64.9311 243.602 64.6627H243.535C243.333 64.6627 243.132 64.5957 242.931 64.5957C242.662 63.8577 241.455 63.5222 240.918 63.3881L240.784 63.321C238.168 62.4488 235.417 61.7109 232.733 61.04C232.666 60.9729 232.599 60.9729 232.532 60.9729C228.708 60.0337 224.951 59.2957 221.463 58.6248C214.955 57.3502 208.515 56.4109 202.141 55.8071C196.238 55.2704 189.864 54.935 181.478 54.6666C178.593 54.5325 175.373 54.5325 171.75 54.4654C171.013 54.4654 170.207 54.3983 169.469 54.3983C167.054 54.3312 164.505 54.2641 162.09 54.5996H162.023C161.62 54.5996 161.151 54.6666 160.815 55.1363C154.375 54.935 147.867 54.935 140.957 55.2704C135.791 55.5388 130.29 56.0755 124.722 56.8135C124.655 56.7464 124.655 56.6793 124.521 56.6793C123.447 56.1426 122.307 55.74 121.166 55.3375L120.227 55.0021C119.489 54.7337 118.684 54.4654 118.013 53.9958C117.611 53.7274 117.275 53.1907 117.007 52.5198C116.604 51.4464 116.336 50.3059 116.135 49.1654C116.067 48.8971 116 48.5616 115.933 48.2933C115.464 46.0123 114.994 43.6642 114.524 41.3832C114.323 40.3098 114.055 39.1693 113.854 38.0959C113.787 37.8276 113.786 37.6263 113.719 37.358C113.585 36.5529 113.451 35.6137 113.049 34.9428C112.981 34.8086 112.78 34.5403 112.512 34.4061C112.176 34.2719 111.841 34.2048 111.573 34.339C111.237 34.4732 111.036 34.7415 110.902 35.077C110.835 35.2782 110.835 35.5466 110.902 35.8149C110.835 36.3516 110.969 36.9554 111.036 37.425C111.103 37.6934 111.17 37.8947 111.17 38.0959C111.573 40.8465 111.908 43.6642 112.243 46.3477L112.512 48.5616C112.713 50.1718 112.847 51.3793 112.981 52.5198C113.049 52.8553 113.049 53.1236 113.116 53.4591C113.183 54.197 113.25 55.0021 113.25 55.8071C113.183 56.3438 113.116 56.8135 112.914 57.2831C112.646 57.954 112.042 58.4236 111.304 58.759C111.237 58.759 111.17 58.8261 111.17 58.8932C110.768 58.9603 110.432 58.9603 110.03 59.0274C109.962 58.9603 109.828 58.9603 109.694 59.0274C109.627 59.0274 109.627 59.0944 109.56 59.0944C106.742 59.3628 104.126 59.4299 101.979 59.4299C99.2955 59.4299 95.6728 59.4299 92.1171 59.2957C92.05 59.2957 91.8487 59.2286 91.7146 59.2286C90.9766 59.0944 89.7019 58.8932 89.2994 59.8324C89.2323 59.9666 89.2323 60.1008 89.1652 60.2349C88.7627 61.1071 88.5614 62.0463 88.4944 62.9855C88.4944 63.7235 88.4943 64.3944 88.6285 64.9982C87.8235 66.6754 86.4817 68.1513 85.14 69.4931C84.7374 69.8956 84.3349 70.2981 83.9995 70.7007C80.9134 74.1221 77.6932 77.5436 74.6071 80.898C73.1312 82.5081 71.5882 84.1853 70.1123 85.7954C67.63 88.546 65.1477 91.3637 62.7326 94.1143C60.787 96.2612 58.8415 98.5421 56.8288 100.756C56.7617 100.823 56.6947 100.957 56.6947 101.091C54.4808 103.641 52.2669 106.19 50.12 108.74L49.9188 109.008C48.6441 110.551 47.1682 112.295 45.3568 113.1C44.0821 113.704 42.7404 114.308 41.3986 115.046C41.0632 115.247 40.7277 115.448 40.4594 115.851C40.3923 115.985 40.3252 116.052 40.3252 116.186C38.648 116.253 36.9708 116.79 35.2936 117.931C34.3544 118.534 33.0797 119.541 33.2139 120.681C33.2139 120.95 33.3481 121.084 33.4151 121.285C33.5493 121.486 33.6835 121.62 33.8177 121.687C34.3544 122.023 35.0923 122.09 35.6961 122.09C35.8303 122.09 35.9645 122.09 36.0316 122.09H36.1658C36.9037 122.157 37.7088 122.224 38.4467 122.157C38.3126 122.493 38.1113 122.761 37.9771 123.029L37.7088 123.499C37.105 124.572 36.5012 125.713 35.8974 126.853C34.2202 130.208 32.6772 133.025 31.1342 135.642C30.0607 137.386 29.6582 139.13 29.7924 141.277V141.411L29.7253 141.478C29.3228 141.948 29.1886 142.351 28.9873 142.82C28.9203 142.887 28.9203 143.021 28.8532 143.156C28.6519 143.558 28.4506 143.826 28.0481 144.229C27.6456 144.632 27.176 145.034 26.7734 145.37C26.1026 145.973 25.4317 146.51 24.8279 147.181C21.071 151.407 21.071 157.647 21.071 163.148C21.071 163.685 21.071 164.221 21.071 164.691C21.071 165.965 21.071 167.173 21.071 168.381C21.071 168.984 21.071 169.588 21.071 170.192C21.071 170.259 21.071 170.326 21.071 170.393C21.0039 170.796 21.0039 171.333 21.2722 171.668C21.4064 171.869 21.6077 171.936 21.8089 172.003C21.876 172.07 21.9431 172.07 22.0773 172.07C22.7482 174.217 23.4861 176.364 24.4254 178.377C24.157 178.578 23.9557 178.779 23.8216 179.182C23.5532 180.121 23.8887 181.731 24.6266 182.402C25.2304 183.006 25.9684 183.14 26.7063 183.341C27.3772 183.543 27.981 183.677 28.3835 184.079C28.5848 184.281 28.7861 184.549 28.9873 184.817C28.5848 184.817 28.1152 184.817 27.7798 184.951C27.5785 185.086 27.4443 185.22 27.3101 185.421C27.1089 185.756 27.176 186.092 27.176 186.36C27.176 186.427 27.176 186.427 27.176 186.494V189.111C27.176 189.178 27.176 189.245 27.176 189.312C27.176 189.513 27.176 189.782 27.2431 189.983C27.3772 190.318 27.5114 190.52 27.7127 190.654C27.7798 190.654 27.7798 190.654 27.8468 190.721C27.8468 190.721 27.8468 190.721 27.9139 190.721C28.0481 190.788 28.1823 190.855 28.3165 190.855C28.4506 190.855 28.5177 190.855 28.6519 190.855C28.6519 190.855 28.719 190.855 28.7861 190.855C28.9203 190.855 29.0544 190.855 29.1215 190.855C29.1886 190.855 29.3228 190.855 29.3899 190.855H39.1847C39.2518 190.855 39.3189 190.855 39.4531 190.855C39.5201 190.855 39.6543 190.855 39.7885 190.855V190.989V191.258C39.7885 191.459 39.7885 191.794 39.8556 192.063C39.8556 192.13 39.8556 192.13 39.8556 192.197C39.9227 192.801 40.3252 193.203 40.929 193.337C41.2644 193.404 41.5328 193.404 41.8682 193.472C41.8682 193.472 41.8682 193.472 41.9353 193.472C42.0695 193.472 42.2037 193.472 42.3378 193.472H50.5897C50.6567 193.606 50.7238 193.807 50.7238 193.941C50.9251 194.612 51.1935 195.216 51.3947 195.82C51.9314 197.027 52.4681 198.235 53.139 199.442C55.8225 204.273 59.7136 208.298 64.4098 211.183C65.2819 211.719 66.2211 212.189 67.1604 212.659C67.1604 212.659 67.2275 212.659 67.2275 212.726C67.7642 212.994 68.3009 213.195 68.8376 213.397C69.0388 213.464 69.173 213.531 69.3743 213.598C69.7768 213.732 70.2464 213.933 70.716 214.068C70.9844 214.135 71.1857 214.202 71.454 214.269C71.8565 214.403 72.2591 214.537 72.6616 214.604C72.9299 214.671 73.1983 214.738 73.4667 214.805C73.8692 214.873 74.2717 215.007 74.6742 215.074C75.0097 215.141 75.3451 215.208 75.6805 215.275C76.016 215.342 76.3514 215.409 76.6869 215.409C77.2236 215.476 77.7603 215.543 78.2299 215.543C78.3641 215.543 78.5653 215.611 78.6995 215.611C79.3704 215.678 80.1084 215.678 80.7792 215.678H80.8463C80.9805 215.678 81.1147 215.678 81.3159 215.745C87.0855 215.611 92.788 213.933 97.6854 210.847C102.046 208.097 105.669 204.273 108.218 199.778C108.419 199.375 108.621 199.04 108.822 198.637C108.822 198.637 108.822 198.57 108.889 198.57V198.503C109.56 197.228 110.097 195.887 110.633 194.545C110.835 193.874 111.103 193.203 111.237 192.532C111.506 192.599 111.774 192.667 112.042 192.734C112.981 192.935 113.921 193.337 114.86 193.673C116.135 194.142 117.409 194.612 118.818 194.813C118.885 194.88 118.952 194.88 119.086 194.88C119.154 194.88 119.154 194.88 119.221 194.88C121.435 195.149 123.783 194.88 125.997 194.545C126.667 194.478 127.271 194.411 127.875 194.344C130.626 194.008 133.577 193.874 137.469 193.874C139.481 193.807 141.561 193.874 143.574 193.874C143.909 193.874 144.244 193.874 144.513 193.874C146.123 193.874 147.8 193.941 149.343 193.941C151.02 193.941 152.765 194.008 154.442 194.008L175.507 194.21C175.91 194.21 176.245 194.21 176.648 194.21L182.686 194.277C185.168 194.277 187.65 194.344 190.133 194.344L198.586 194.478L262.655 195.685C267.82 195.753 273.59 195.82 279.225 196.356C280.5 196.423 281.775 196.625 282.982 196.759C284.861 197.027 286.739 197.296 288.685 197.363C288.752 197.363 288.819 197.363 288.953 197.363C289.758 197.43 291.234 197.564 291.637 196.49C291.704 196.423 291.704 196.356 291.704 196.289C291.771 196.289 291.838 196.289 291.905 196.289H292.844C293.448 196.289 293.985 196.289 294.589 196.289H294.991C295.729 196.356 296.4 196.356 297.138 196.356C297.205 196.356 297.272 196.356 297.406 196.356C297.54 196.356 297.876 196.356 298.077 196.356C298.211 196.625 298.345 196.96 298.48 197.228C299.821 200.315 301.7 203.132 303.981 205.614C308.409 210.445 314.447 213.866 320.887 215.208C326.925 216.416 333.097 215.879 338.799 213.665C344.904 211.25 350.272 206.822 353.894 201.187C354.766 199.845 355.504 198.369 356.175 196.893C356.175 196.826 356.242 196.759 356.242 196.759C356.309 196.759 356.309 196.759 356.377 196.759C356.444 196.759 356.578 196.759 356.645 196.759H356.779C357.115 196.759 357.383 196.759 357.718 196.759C358.59 196.759 359.463 196.759 360.335 196.759C364.092 196.826 367.781 196.692 370.599 196.558C374.021 196.423 377.576 196.222 380.998 196.021C384.218 195.82 387.505 195.618 390.793 195.484C392.269 195.484 393.745 195.417 395.22 195.417H396.026C396.965 195.417 397.971 195.417 398.977 195.149C400.655 194.679 401.527 193.136 402.13 192.063C402.13 192.063 402.13 192.063 402.13 191.996C402.198 191.929 402.198 191.861 402.265 191.794C402.332 191.727 402.332 191.593 402.399 191.526L402.533 191.325C402.801 190.721 403.204 190.05 403.137 189.312C403.07 188.306 401.929 187.769 401.594 187.568H401.527C401.594 183.274 401.594 178.779 401.393 173.949C401.527 173.882 401.661 173.815 401.795 173.748C402.198 173.412 402.6 173.077 402.936 172.54ZM289.289 196.088C289.154 196.088 289.02 196.088 288.953 196.088C288.215 196.088 287.544 196.021 286.806 195.954L286.471 195.887C285.263 195.753 283.989 195.551 282.714 195.417L281.238 195.216C278.085 194.813 274.865 194.679 271.644 194.545C267.686 194.411 263.594 194.344 259.636 194.277L190.133 193.27C186.309 193.203 182.485 193.136 178.661 193.136C176.782 193.069 174.971 193.069 173.092 193.069L145.117 192.801C144.11 192.734 143.171 192.734 142.232 192.734C138.274 192.667 134.181 192.599 130.156 192.935C129.015 193.002 127.875 193.136 126.802 193.27C125.795 193.337 124.789 193.472 123.783 193.539C123.85 190.721 123.783 187.836 123.648 184.951L123.581 183.744C123.447 181.06 123.38 178.243 122.91 175.492C121.837 168.984 119.221 162.678 115.397 157.378C111.908 152.548 107.413 148.456 102.382 145.504C96.6791 142.216 90.3728 140.204 83.9324 139.734C77.559 139.197 71.0515 140.204 65.2148 142.485C64.611 142.686 64.0743 142.954 63.4705 143.223C62.3971 142.619 61.2566 142.149 60.2503 141.68C57.4997 140.539 54.6149 139.6 51.8643 138.728L44.015 136.246L44.0821 136.178C44.9543 135.306 45.7593 134.3 46.5644 133.361C46.7656 133.16 46.9669 132.958 47.1011 132.69C47.3023 132.489 47.4365 132.287 47.6378 132.086C48.3758 131.214 49.1137 130.342 49.8517 129.47C50.2542 129 50.6567 128.53 51.0593 128.061C52.2669 126.585 53.5415 125.109 54.7491 123.633L55.0175 123.365C55.2187 123.163 55.42 122.895 55.5542 122.694C55.7554 122.493 55.9567 122.224 56.0909 122.023C56.8288 121.084 57.4997 120.077 58.0364 119.004C58.1706 118.736 58.3048 118.467 58.3719 118.199C58.506 117.931 58.5731 117.662 58.6402 117.327C58.7073 116.991 58.7744 116.723 58.7744 116.455C58.7744 116.119 58.6402 115.784 58.506 115.515L151.423 120.212C151.423 120.815 151.423 121.486 151.356 122.09C151.356 122.224 151.356 122.291 151.356 122.425C151.356 123.968 151.356 125.579 151.356 127.122V127.189C151.356 127.39 151.356 127.658 151.356 127.86C151.423 133.763 151.758 139.734 152.094 145.302C152.295 148.858 152.496 151.743 152.832 154.426C152.966 155.231 153.033 156.104 153.167 156.976C153.167 157.043 153.167 157.11 153.167 157.11C153.368 158.787 153.637 160.464 153.972 162.074L136.194 161.336C135.926 161.269 135.724 161.269 135.523 161.269C134.852 161.269 134.114 161.202 133.443 161.269C132.571 161.336 131.967 161.672 131.699 162.209C131.296 163.014 131.565 164.087 132.37 165.429L132.504 165.697C132.907 166.368 133.309 167.106 133.98 167.576C134.584 168.045 135.322 168.112 136.06 168.179C137.536 168.246 139.012 168.314 140.488 168.314C141.091 168.314 141.762 168.314 142.366 168.314L156.186 168.649C156.454 169.186 156.723 169.655 157.058 170.125C157.528 170.863 157.997 171.534 158.534 172.205C158.668 172.339 158.803 172.54 158.937 172.674C158.937 172.674 158.937 172.674 159.004 172.741C160.077 174.083 161.352 175.291 162.761 176.431C162.828 176.498 162.895 176.565 163.029 176.632C163.23 176.767 163.432 176.901 163.633 177.035C163.7 177.102 163.767 177.102 163.767 177.169C166.182 178.913 168.866 180.322 171.818 181.262C172.086 181.329 172.287 181.463 172.556 181.53C172.623 181.53 172.69 181.597 172.824 181.597C173.428 181.798 174.031 181.932 174.635 182.067C176.245 182.469 177.99 182.737 179.734 182.872C184.833 183.274 189.998 183.475 194.963 183.61C195.969 183.677 196.976 183.677 197.982 183.744C199.995 183.878 202.007 183.945 204.087 183.945C205.563 184.012 207.039 184.079 208.515 184.079C210.729 184.146 213.01 184.281 215.223 184.348L251.652 185.622C254.805 185.756 258.093 185.891 261.38 185.958H261.984C264.533 186.025 267.418 186.092 270.705 186.092C270.839 186.092 270.974 186.092 271.108 186.092C271.376 186.092 271.577 186.092 271.846 186.092C271.913 186.092 271.98 186.092 271.98 186.092C272.315 186.092 272.718 186.092 273.12 186.226C274.395 186.159 276.005 186.159 277.615 186.025H277.817C278.555 185.958 279.427 185.891 280.165 185.488C280.232 185.421 280.366 185.354 280.433 185.287C282.781 185.22 285.129 185.22 287.611 185.153C288.685 185.153 289.825 185.086 290.966 185.086L290.899 187.299C290.832 189.715 290.765 192.331 290.63 194.813C290.63 194.947 290.63 195.082 290.63 195.216C290.63 196.088 290.63 196.088 290.094 196.155C289.892 196.155 289.758 196.155 289.557 196.155C289.49 196.088 289.423 196.088 289.289 196.088ZM83.8653 214.47C83.5969 214.47 83.3286 214.537 83.0602 214.537C82.5235 214.604 81.9197 214.604 81.383 214.604C81.3159 214.604 81.1818 214.604 81.1147 214.604C80.4438 214.604 79.7729 214.604 79.1691 214.537H79.102C78.4312 214.47 77.6932 214.403 77.0223 214.336H76.9552C76.2843 214.269 75.6135 214.135 74.8755 214H74.8084C74.1375 213.866 73.4667 213.732 72.7958 213.531C72.7287 213.531 72.7287 213.531 72.6616 213.464C71.9907 213.262 71.3869 213.061 70.7831 212.86C70.716 212.86 70.649 212.793 70.649 212.793C70.0452 212.592 69.4414 212.323 68.8376 212.055C68.7705 212.055 68.7034 211.988 68.6363 211.988C68.0996 211.719 67.4958 211.518 66.9591 211.183C66.8249 211.116 66.6908 211.049 66.5566 210.981C66.1541 210.78 65.7515 210.512 65.2819 210.311C65.0136 210.176 64.8123 210.042 64.544 209.841C60.1161 207.023 56.4263 203.266 53.9441 198.637C53.6757 198.168 53.4074 197.698 53.2061 197.228C53.139 197.027 53.0048 196.893 52.9377 196.692C52.8706 196.558 52.8036 196.423 52.7365 196.222C51.0593 192.331 50.1871 188.172 50.12 183.811C50.1871 177.773 51.8643 171.936 55.1516 167.039C58.4389 162.007 63.068 158.116 68.5692 155.701C73.8692 153.353 80.0413 152.615 85.8779 153.621C91.6475 154.628 97.2158 157.311 101.509 161.336C105.937 165.429 109.023 170.662 110.432 176.498C111.841 182.201 111.506 188.373 109.56 193.941C107.614 199.577 103.925 204.608 99.2955 208.097C94.8677 211.451 89.6348 213.531 84.1336 214.202C84.0665 214.403 83.9995 214.403 83.8653 214.47ZM26.7063 182.268C26.438 182.201 26.1696 182.067 25.9013 182C25.8342 182 25.7671 181.932 25.7 181.932C25.5659 181.865 25.4988 181.798 25.3646 181.664C25.2975 181.597 25.1633 181.463 25.0962 181.329C24.9621 181.06 24.895 180.725 24.8279 180.255C24.8279 180.121 24.8279 179.987 24.7608 179.853C24.7608 179.719 24.7608 179.584 24.8279 179.45C24.895 179.383 24.9621 179.182 25.2304 179.115C25.2975 179.115 25.2975 179.115 25.3646 179.115C25.4317 179.115 25.4988 179.115 25.5659 179.048C26.3709 178.981 27.2431 178.981 28.1152 178.981C28.6519 178.981 29.1215 178.981 29.5911 178.981H29.6582C30.4633 178.913 31.4025 178.913 32.2076 178.511C32.6772 178.243 32.9455 177.907 33.0126 177.572C34.6898 177.706 36.4341 177.84 38.1113 177.974C37.7088 180.859 37.5075 183.945 37.5075 187.232C36.9037 187.232 36.367 187.232 35.7632 187.232H34.3544C33.6835 187.232 32.9455 187.232 32.3417 186.964C31.4025 186.561 30.8658 185.756 30.3291 184.884C29.9937 184.348 29.5911 183.744 29.0544 183.207C28.3835 182.67 27.6456 182.469 26.9076 182.268C26.9076 182.335 26.8405 182.335 26.7063 182.268C26.7734 182.268 26.7063 182.268 26.7063 182.268ZM30.9329 138.929C30.9329 138.862 30.9329 138.795 30.9329 138.728C31.1342 137.721 31.6038 136.648 32.4088 135.508C32.6772 135.105 32.8784 134.703 33.0797 134.3C33.0126 134.434 32.9455 134.635 32.8784 134.77C32.543 135.44 31.9392 137.118 32.4759 138.392C31.8721 138.929 31.3354 139.466 30.7987 140.07C30.7987 139.667 30.7987 139.332 30.8658 138.996C30.9329 138.996 30.9329 138.929 30.9329 138.929ZM124.655 57.7527L125.124 57.6856C125.326 57.6185 125.46 57.6185 125.661 57.6185C128.814 57.216 131.967 56.8805 134.986 56.6122C135.724 56.5451 136.462 56.478 137.267 56.4109C138.542 56.3438 139.817 56.2768 141.024 56.2097C147.867 55.8742 154.308 55.8071 160.614 56.0755C160.614 57.0147 160.614 58.021 160.681 58.8932C157.125 58.9603 153.704 59.0274 150.417 59.1615C144.513 59.3628 137.536 59.6311 130.558 60.4362C123.85 61.1742 117.812 62.4488 112.378 64.1931C111.64 62.9185 111.036 61.4425 110.566 59.9666C111.103 59.8995 111.573 59.8324 112.042 59.6982C113.988 59.497 116 59.0944 117.946 58.8261C119.086 58.6248 120.16 58.4907 121.3 58.2894C122.441 58.1552 123.514 57.954 124.655 57.8198C124.588 57.7527 124.655 57.7527 124.655 57.7527ZM322.296 112.429C322.43 112.429 322.497 112.429 322.564 112.429C323.436 112.429 324.376 112.362 325.248 112.362C325.852 112.362 326.455 112.362 327.059 112.362C327.462 112.362 327.797 112.362 328.2 112.429C330.212 112.496 332.091 112.765 333.835 113.1C334.908 113.301 336.116 113.57 337.324 113.905C338.867 114.308 340.342 114.71 341.886 115.113C346.984 116.388 352.15 117.796 357.249 119.272C362.28 120.815 368.922 122.962 375.027 126.249C378.113 127.927 380.461 129.47 382.34 131.281C383.346 132.153 384.285 133.294 385.291 134.635C385.627 135.038 385.828 135.44 386.164 135.843C384.755 135.91 383.279 135.91 381.937 135.91C380.394 134.501 378.784 133.227 377.107 132.153C374.96 130.811 373.014 130.208 371.069 130.208C369.392 130.275 368.251 130.744 367.647 131.684C367.111 132.489 367.043 133.495 367.111 134.501C364.159 133.965 361.207 133.361 358.389 132.824C355.102 132.22 351.68 131.549 348.259 130.946C342.355 129.939 336.518 129.201 330.682 128.665C330.615 128.598 330.548 128.53 330.481 128.463C327.663 127.189 325.181 125.646 322.631 123.566C320.552 121.889 318.338 120.01 315.788 117.863L314.245 116.522C312.836 115.314 311.361 114.039 309.952 112.832C312.501 112.765 315.05 112.631 317.533 112.564L318.941 112.496C319.545 112.496 320.082 112.429 320.686 112.429C320.954 112.429 321.29 112.429 321.558 112.429C321.759 112.429 322.095 112.429 322.296 112.429ZM389.786 139.868C389.853 139.868 389.853 139.935 389.92 139.935C390.189 140.07 390.457 140.271 390.726 140.405C390.726 140.405 390.793 140.405 390.793 140.472C390.86 140.472 390.927 140.539 390.927 140.539C390.927 140.539 390.927 140.539 390.994 140.539C391.061 140.606 391.128 140.606 391.195 140.673C391.598 140.875 392.067 141.143 392.47 141.344C391.531 145.705 391.799 150.334 393.275 153.89C394.818 157.58 398.105 159.793 402.13 159.995C402.198 160.33 402.332 160.598 402.332 160.934C402.466 162.343 402.466 163.819 402.533 165.093C402.533 165.63 402.6 166.234 402.6 166.771C402.667 167.911 402.667 169.119 402.667 170.259C402.667 171.333 402.198 172.272 401.46 172.741C401.393 172.741 401.325 172.808 401.258 172.808C400.789 171.064 399.38 169.924 397.434 169.924C396.16 169.924 394.415 170.326 393.141 171.333C392.537 171.802 392.202 172.406 392 173.077C390.055 173.077 388.176 173.01 386.365 172.943L380.059 172.808C379.924 172.741 379.723 172.741 379.589 172.741C378.985 172.674 378.314 172.607 377.778 172.876C377.375 173.077 377.308 173.345 377.241 173.614C377.107 174.083 377.107 174.955 377.241 175.492C377.576 176.431 378.851 176.834 379.723 177.169C379.857 177.236 379.991 177.236 380.126 177.303C383.815 178.779 387.908 179.584 392.067 179.651C392.336 180.792 392.671 181.865 393.141 183.006L393.275 183.274C393.812 184.482 394.415 185.958 395.623 186.763C396.629 187.367 397.703 187.635 398.776 187.836C399.581 187.97 400.185 188.105 400.856 188.373C400.923 188.44 400.99 188.44 401.057 188.507C401.191 188.574 401.325 188.641 401.46 188.708C401.527 188.708 401.594 188.775 401.661 188.842C395.153 187.769 388.579 187.299 382.407 186.897C377.241 186.561 372.276 186.36 368.05 186.226C367.916 184.079 367.714 181.865 367.446 179.517C367.178 176.834 366.708 173.614 365.635 170.46C363.756 164.825 360.402 159.592 355.84 155.299C355.571 155.03 355.303 154.829 355.035 154.561C355.303 154.493 355.504 154.359 355.773 154.292C362.146 151.676 367.983 148.858 373.551 145.772C375.094 147.181 376.838 148.388 378.717 149.328C380.327 150.133 382.407 151.072 384.621 151.139C384.688 151.139 384.755 151.139 384.822 151.139C385.895 151.139 386.767 150.737 387.371 149.999C388.445 148.657 388.512 146.644 388.243 145.302C387.639 142.552 385.828 140.204 384.486 138.661C384.017 138.057 383.48 137.52 382.943 136.984C383.078 136.984 383.212 136.984 383.346 136.984C384.486 136.984 385.56 136.984 386.834 136.916C387.17 137.386 387.505 137.856 387.841 138.258C388.31 138.862 388.847 139.332 389.451 139.667C389.585 139.734 389.652 139.801 389.786 139.868ZM396.093 143.357C396.763 143.491 397.3 143.894 397.501 144.564C397.837 145.504 397.904 146.577 397.971 147.583V147.718C397.971 147.852 398.038 147.986 398.038 148.187C398.105 148.59 398.172 149.126 398.038 149.462C397.971 149.663 397.77 149.73 397.569 149.73C397.099 148.858 396.696 147.919 396.294 146.778C396.16 146.376 396.093 145.906 395.958 145.437C395.824 144.766 395.623 144.028 395.355 143.29H395.422H395.489C395.623 143.29 395.824 143.29 395.958 143.29C396.025 143.29 396.025 143.357 396.093 143.357ZM393.409 141.881C394.55 142.753 394.885 144.229 395.153 145.705C395.22 146.175 395.355 146.644 395.489 147.114C396.294 149.529 397.3 151.407 398.843 152.816C399.044 153.018 399.313 153.219 399.514 153.42C400.386 154.225 401.258 154.963 401.393 156.036C401.46 156.305 401.46 156.64 401.46 156.909C401.527 157.512 401.527 158.116 401.728 158.72L401.795 158.854C398.306 158.519 395.69 156.64 394.281 153.42C392.872 150.2 392.604 145.973 393.409 141.881ZM400.52 187.165C400.051 187.031 399.514 186.897 399.044 186.763C398.038 186.561 397.032 186.36 396.227 185.824C395.288 185.153 394.751 183.878 394.281 182.737L394.147 182.469C393.074 179.92 392.537 177.37 392.671 175.022C392.671 174.687 392.738 174.351 392.738 174.016C393.677 174.016 394.617 174.016 395.556 174.016H396.428C397.703 174.016 399.112 174.016 400.386 173.882C400.587 178.578 400.587 183.006 400.52 187.165ZM391.866 178.712C387.908 178.645 383.95 177.84 380.327 176.431C380.193 176.364 380.059 176.297 379.857 176.23C379.254 176.029 378.18 175.626 378.046 175.157C377.979 174.821 377.979 174.15 378.046 173.815V173.748C378.314 173.614 378.851 173.614 379.321 173.681C379.522 173.748 379.723 173.748 379.857 173.748L386.164 173.882C387.975 173.949 389.853 174.016 391.732 174.016C391.665 174.419 391.665 174.754 391.598 175.089C391.598 176.23 391.665 177.438 391.866 178.712ZM393.074 173.01C393.275 172.54 393.476 172.205 393.812 171.936C394.684 171.265 396.093 170.796 397.434 170.796C398.91 170.796 399.917 171.601 400.319 172.876C399.044 173.01 397.837 173.01 396.562 173.01H395.69C394.818 173.01 393.946 173.01 393.074 173.01ZM363.823 195.551C363.823 189.715 363.488 184.281 362.884 178.981C362.146 172.473 359.865 166.838 356.175 162.141C354.498 159.995 352.485 158.049 350.339 156.305C351.546 155.835 352.754 155.433 354.028 154.896C354.431 155.231 354.833 155.567 355.169 155.969C359.597 160.196 362.951 165.295 364.763 170.729C365.769 173.815 366.238 176.901 366.507 179.584C366.909 183.006 367.111 186.226 367.245 189.446C367.312 191.258 367.312 193.136 367.312 195.417C366.171 195.484 365.031 195.484 363.823 195.551ZM318.405 213.262C318.136 213.195 317.868 213.128 317.6 212.994C312.702 211.317 308.274 208.432 304.786 204.608C302.572 202.193 300.761 199.442 299.419 196.49C299.218 196.088 299.083 195.753 298.949 195.417C298.882 195.283 298.815 195.216 298.748 195.216C297.339 191.66 296.668 187.903 296.601 183.945C296.668 177.84 298.413 172.071 301.633 167.173C304.92 162.141 309.549 158.25 315.05 155.835C320.35 153.487 326.522 152.749 332.359 153.756C338.196 154.762 343.697 157.512 347.991 161.471C352.351 165.563 355.437 170.796 356.913 176.632C358.322 182.268 357.987 188.507 356.041 194.075C354.096 199.711 350.406 204.675 345.777 208.231C341.013 211.854 335.311 214 329.34 214.47C325.717 214.805 321.96 214.336 318.405 213.262ZM356.98 195.551H356.645C356.779 195.216 356.913 194.813 357.047 194.478C359.06 188.708 359.395 182.268 357.92 176.431C356.444 170.46 353.223 165.026 348.729 160.8C344.301 156.707 338.598 153.823 332.56 152.816C326.522 151.743 320.149 152.548 314.648 154.963C308.945 157.445 304.182 161.471 300.761 166.636C297.406 171.668 295.662 177.639 295.595 183.945C295.662 187.836 296.333 191.526 297.675 195.082C297.473 195.082 297.272 195.082 297.071 195.082C296.4 195.015 295.729 195.015 295.058 195.015H294.656C294.052 195.015 293.515 195.015 292.911 195.015H292.039C292.039 195.015 291.972 195.015 291.905 195.015C291.838 195.015 291.771 195.015 291.704 194.947V194.88C291.838 192.331 291.905 189.782 291.972 187.299L292.039 184.75C292.106 184.683 292.106 184.616 292.106 184.482V184.415V184.348C292.308 178.444 293.783 172.674 296.467 167.71C299.218 162.611 303.176 158.25 307.872 155.097C312.836 151.81 318.539 149.864 324.376 149.395C330.548 148.925 336.854 150.066 342.489 152.682C344.77 153.756 346.917 155.097 348.93 156.573L348.997 156.64C351.412 158.452 353.559 160.531 355.437 162.879C359.06 167.441 361.207 172.943 361.945 179.249C362.549 184.482 362.817 189.782 362.817 195.551C362.012 195.551 361.274 195.551 360.469 195.551C359.664 195.551 358.792 195.551 357.92 195.551C357.584 195.551 357.316 195.551 356.98 195.551ZM281.372 184.213C281.976 183.207 282.244 181.865 282.446 180.792L282.513 180.322C282.58 180.121 282.58 179.987 282.58 179.786C283.049 177.37 283.385 174.955 283.586 172.808C283.653 172.272 283.653 171.802 283.72 171.265C283.72 171.064 283.787 170.863 283.787 170.662V170.595C283.787 170.46 283.787 170.326 283.787 170.259C283.787 170.125 283.787 169.991 283.787 169.857C283.989 167.441 284.19 165.026 284.324 162.611C284.391 161.94 284.391 161.202 284.458 160.531C284.592 158.049 284.66 155.567 284.727 153.219C284.861 145.906 284.794 139.265 284.525 133.025V132.757C284.458 130.811 284.324 128.866 284.19 126.92L313.038 128.53C314.245 128.598 315.386 128.665 316.593 128.732C320.216 128.866 324.04 129.067 327.73 129.403C334.372 129.939 341.215 130.811 347.923 131.952C351.345 132.489 354.766 133.16 358.054 133.83C361.073 134.434 364.159 135.038 367.178 135.575C367.245 135.91 367.312 136.178 367.379 136.447C368.184 139.13 369.794 141.881 372.142 144.43C372.343 144.632 372.545 144.833 372.746 145.034C367.245 148.053 361.542 150.737 355.303 153.353C354.901 153.487 354.498 153.688 354.096 153.823C349.802 150.133 344.636 147.382 339.135 145.705C333.298 143.961 327.059 143.558 321.155 144.43C314.916 145.37 308.878 147.852 303.712 151.542C298.278 155.5 293.918 160.733 291.033 166.703C288.484 172.07 287.075 178.108 287.075 184.213C285.129 184.146 283.251 184.213 281.372 184.213ZM148.27 162.745C148.337 162.879 148.471 162.947 148.672 162.947C149.477 162.947 149.813 163.282 150.148 164.221L150.215 164.49C150.484 165.228 150.886 166.368 150.484 166.972C150.349 167.173 150.148 167.307 149.88 167.374L142.5 167.173C141.829 167.173 141.225 167.173 140.555 167.173C139.146 167.173 137.67 167.173 136.194 167.039C135.59 166.972 134.986 166.905 134.584 166.636C134.114 166.301 133.712 165.697 133.376 165.093L133.242 164.825C132.638 163.819 132.437 163.014 132.638 162.611C132.772 162.41 133.108 162.276 133.577 162.209C133.779 162.209 134.047 162.209 134.248 162.209C134.651 162.209 135.12 162.209 135.523 162.141C135.724 162.209 135.993 162.209 136.194 162.209L148.27 162.745ZM151.154 164.154L151.087 163.886C150.953 163.55 150.819 163.148 150.551 162.812L154.241 162.947C154.308 163.215 154.375 163.55 154.442 163.819C154.643 164.691 154.911 165.496 155.247 166.301C155.247 166.368 155.247 166.368 155.314 166.435C155.381 166.636 155.448 166.838 155.515 166.972C155.582 167.173 155.649 167.307 155.716 167.509L151.356 167.374C151.96 166.368 151.49 165.026 151.154 164.154ZM122.709 193.673C121.971 193.74 121.166 193.74 120.428 193.74C120.16 193.74 119.892 193.673 119.623 193.673C119.623 189.513 119.489 185.555 119.288 181.664C118.885 175.022 117.543 169.521 115.061 164.691C112.176 159.055 108.017 154.225 103.052 150.737C98.0879 147.248 92.3855 144.9 86.6159 144.028C80.7792 143.156 74.7413 143.625 69.173 145.37C68.5692 145.571 67.9654 145.772 67.3616 145.973C66.4224 145.101 65.4161 144.363 64.4098 143.692C64.8123 143.491 65.2148 143.357 65.6174 143.156C71.3198 140.942 77.6261 140.002 83.8653 140.472C90.1045 140.942 96.3436 142.887 101.845 146.107C106.742 148.992 111.17 153.018 114.524 157.714C118.281 162.947 120.831 169.052 121.837 175.425C122.24 178.108 122.374 180.859 122.508 183.543L122.575 184.817C122.709 187.836 122.776 190.788 122.709 193.673ZM111.438 176.431C109.962 170.46 106.809 165.026 102.247 160.8C97.8196 156.707 92.1171 153.823 86.0792 152.816C80.0413 151.743 73.6679 152.548 68.1667 154.963C62.4642 157.445 57.701 161.471 54.2795 166.636C51.3276 171.131 49.5833 176.297 49.1808 181.865H43.0087C43.0758 180.993 43.21 180.054 43.2771 179.115C43.2771 178.846 43.3442 178.645 43.3442 178.377C43.4112 178.31 43.4112 178.31 43.4783 178.243C43.4783 178.108 43.4783 178.041 43.4112 177.907C43.7467 175.626 44.2163 173.077 45.0214 170.595C46.8998 164.959 50.053 159.793 54.2124 155.701C58.506 151.407 63.7389 148.187 69.4414 146.443C74.8755 144.766 80.7121 144.296 86.4146 145.168C92.05 146.04 97.5512 148.254 102.382 151.676C107.212 155.097 111.237 159.793 114.055 165.228C116.47 169.857 117.812 175.291 118.147 181.731C118.416 185.488 118.483 189.379 118.483 193.472C117.543 193.27 116.604 192.935 115.665 192.599C115.061 192.331 114.39 192.13 113.719 191.929C112.981 191.727 112.243 191.526 111.506 191.392C112.646 186.494 112.646 181.262 111.438 176.431ZM42.3378 178.846C42.2037 179.987 42.0695 181.06 42.0024 182.067C41.9353 182.134 41.8682 182.268 41.8682 182.402C41.8682 182.469 41.8682 182.603 41.9353 182.67C41.9353 182.939 41.8682 183.274 41.8682 183.543C41.8011 184.348 41.7341 185.153 41.7341 185.958C41.7341 186.092 41.7341 186.226 41.7341 186.427C41.7341 186.696 41.8011 186.964 41.7341 187.098C41.7341 187.165 41.5328 187.299 40.3923 187.232C40.3252 187.232 40.3252 187.232 40.2581 187.232H40.191C40.1239 187.232 40.1239 187.232 40.0569 187.232C39.8556 187.232 39.7214 187.232 39.5872 187.232C39.2518 187.232 38.9164 187.232 38.5809 187.232C38.5809 184.012 38.7822 180.993 39.1176 178.108C40.191 178.243 41.2644 178.377 42.3378 178.511C42.3378 178.645 42.3378 178.779 42.3378 178.846ZM40.7948 191.191C40.7948 191.123 40.7948 191.123 40.7948 191.123C40.7948 190.922 40.7948 190.721 40.7948 190.587V188.373C41.5999 188.44 42.5391 188.239 42.7404 187.434C42.8075 187.165 42.7404 186.83 42.7404 186.494C42.7404 186.36 42.7404 186.226 42.7404 186.092C42.7404 185.287 42.7404 184.482 42.8075 183.744C42.8075 183.475 42.8745 183.207 42.8745 182.939H49.1137C49.1137 183.274 49.1137 183.61 49.1137 183.945C49.1808 186.83 49.5163 189.58 50.2542 192.264H42.3378C42.2037 192.264 42.0695 192.264 41.9353 192.264C41.667 192.264 41.3986 192.331 41.1973 192.264C40.8619 192.197 40.7948 192.063 40.7948 191.191ZM66.3553 146.376C61.6592 148.254 57.2314 151.139 53.5415 154.829C49.315 159.055 46.0277 164.355 44.1492 170.125C43.2771 172.741 42.8075 175.291 42.5391 177.572C41.4657 177.438 40.3923 177.303 39.3189 177.169C39.7214 174.419 40.3252 171.802 41.0632 169.454C43.0087 163.483 46.3631 157.848 50.7909 153.152C54.2795 149.529 58.5731 146.443 63.3364 144.296C64.3427 144.833 65.4161 145.504 66.3553 146.376ZM50.053 152.548C45.5581 157.244 42.0695 163.014 40.1239 169.119C39.3189 171.534 38.7151 174.217 38.3126 177.035C36.5683 176.834 34.824 176.7 33.0797 176.632C33.0126 176.096 32.7443 175.559 32.543 175.089C32.543 174.955 32.4759 174.888 32.4088 174.754C32.0734 174.083 31.6709 173.144 31 172.473C29.9266 171.333 28.4506 171.131 27.3101 171.064H27.176C26.7063 171.064 26.2367 171.064 25.7 171.064C25.5659 170.93 25.3646 170.863 25.1633 170.93C25.0962 170.93 25.0292 170.997 25.0292 171.064C24.2241 171.064 23.4861 171.064 22.6811 171.064C22.5469 170.997 22.4127 170.93 22.2785 170.997H22.2115C22.2115 170.863 22.2115 170.527 22.2115 170.46C22.2115 170.393 22.2115 170.259 22.2115 170.192C22.2115 169.588 22.2115 168.984 22.2115 168.381C22.2115 167.173 22.2115 165.965 22.2115 164.758C22.2115 164.221 22.2115 163.752 22.2115 163.215C22.2115 157.915 22.2115 151.877 25.7 147.919C26.2367 147.315 26.8405 146.778 27.5114 146.242C27.981 145.839 28.4506 145.437 28.8532 145.034C29.0544 144.833 29.2557 144.632 29.3899 144.43C30.4633 144.43 31.6038 144.497 32.6772 144.564C39.0505 144.967 45.5581 146.04 51.9985 147.651C52.0656 147.651 52.0656 147.651 52.1327 147.651C52.3339 147.651 52.5352 147.516 52.6694 147.315C52.7365 147.047 52.6023 146.778 52.3339 146.711C45.8264 145.034 39.2518 143.961 32.8114 143.558C31.805 143.491 30.8658 143.491 29.9266 143.424C29.9266 143.357 29.9937 143.29 29.9937 143.223C30.0607 142.887 30.1949 142.619 30.3291 142.418C30.3291 142.418 30.3291 142.418 30.3962 142.351C30.5304 142.216 30.6645 142.082 30.7987 141.881C31.5367 141.009 32.3417 140.137 33.2139 139.265C33.6164 139.466 34.1531 139.533 34.6227 139.533C34.6898 139.533 34.7569 139.533 34.7569 139.533C34.824 139.533 34.8911 139.533 34.8911 139.466H35.0253C37.105 139.466 40.0569 139.13 42.2708 137.654C42.5391 137.453 42.8075 137.252 43.0758 137.051L51.5289 139.734C54.2795 140.606 57.0972 141.546 59.8478 142.686C60.6529 143.021 61.4579 143.357 62.33 143.826C57.7681 145.973 53.5415 148.992 50.053 152.548ZM25.3646 177.907C24.8279 176.767 24.3583 175.626 23.9557 174.486C23.7545 173.815 23.4861 173.144 23.2849 172.406C23.2178 172.339 23.2178 172.272 23.2178 172.205C23.2178 172.071 23.1507 171.936 23.1507 171.802C23.7545 171.735 24.4254 171.735 25.0292 171.802C25.7 173.614 26.438 175.559 27.3101 177.773C26.6393 177.773 26.0355 177.84 25.3646 177.907ZM28.3835 177.773C27.5114 175.559 26.7734 173.614 26.1026 171.802C26.3709 171.802 26.6393 171.802 26.9076 171.869H27.0418C28.4506 171.936 29.3899 172.272 30.0607 172.943C30.5975 173.546 31 174.284 31.2683 174.955C31.3354 175.089 31.4025 175.224 31.4696 175.358C31.7379 175.827 32.0063 176.431 32.0063 176.901C32.0063 177.102 31.9392 177.236 31.6038 177.438C31.0671 177.706 30.262 177.773 29.524 177.773H29.457C29.1215 177.773 28.719 177.773 28.3835 177.773ZM39.4531 122.358C39.9898 121.486 40.5265 120.614 40.8619 119.675C41.0632 119.071 41.0632 118.467 41.0632 117.863C41.0632 117.595 40.9961 117.26 41.0632 116.991C41.1303 116.924 41.1303 116.857 41.1303 116.79C41.2644 116.186 42.1366 115.851 42.8075 115.515C43.0087 115.448 43.21 115.314 43.4112 115.247C43.8138 114.979 44.2163 114.845 44.6188 114.643C45.2897 114.308 45.9606 114.039 46.5644 113.637C46.7656 113.503 46.8998 113.436 47.034 113.301C47.1011 113.301 47.1011 113.369 47.1682 113.369C48.1074 113.905 49.0466 114.308 49.9859 114.576C49.6504 114.643 49.3821 114.777 49.0466 114.845C48.577 114.979 48.1745 115.18 47.772 115.314C47.3694 115.381 47.034 115.515 46.7656 115.65C46.5644 115.717 46.4973 115.918 46.4302 116.052C45.3568 116.723 44.3505 117.662 43.4112 118.803C41.734 120.95 40.191 123.23 38.7822 125.511L37.2392 127.86C36.5683 128.866 35.9645 129.872 35.2936 130.879C35.0923 131.214 34.8911 131.482 34.6898 131.818C34.2873 132.354 33.8848 132.958 33.5493 133.495C34.2202 132.22 34.8911 130.946 35.562 129.671C36.0316 128.799 36.4341 127.927 36.9037 127.055C37.7088 125.511 38.5809 123.901 39.4531 122.358ZM33.7506 135.172C34.2202 134.233 34.8911 133.294 35.4949 132.354C35.7632 132.019 35.9645 131.751 36.1658 131.415C36.8366 130.409 37.4404 129.403 38.1113 128.396L39.6543 126.048C41.0632 123.767 42.5391 121.486 44.2163 119.406C45.3568 117.998 46.4973 117.058 47.9061 116.388C48.8454 116.186 50.12 116.253 50.7238 116.723C50.858 116.857 51.1264 117.125 50.9922 117.729C50.858 118.601 50.3884 119.474 49.9188 120.279C49.8517 120.48 49.7175 120.614 49.6504 120.815C48.8454 122.358 47.9061 123.901 47.1682 125.176C46.3631 126.585 45.491 127.927 44.6859 129.268C43.8138 130.677 42.8745 132.153 42.0024 133.629C41.8682 133.83 41.7341 134.099 41.5999 134.3C40.5936 136.044 39.6543 137.721 37.7088 138.191H37.6417C36.7025 138.325 35.8303 138.392 35.0253 138.459H34.9582C34.3544 138.459 33.8177 138.459 33.5493 138.191C33.4822 138.124 33.4822 138.124 33.4151 138.057C32.9455 137.051 33.5493 135.575 33.7506 135.172ZM41.7341 136.782C41.4657 136.984 41.1303 137.118 40.7948 137.319C41.4657 136.581 41.9353 135.709 42.472 134.77C42.6062 134.501 42.7404 134.3 42.8745 134.099C43.7467 132.623 44.6859 131.147 45.5581 129.738C46.3631 128.396 47.2353 127.055 48.0403 125.646C48.7783 124.371 49.7175 122.828 50.5226 121.285C50.5897 121.084 50.7238 120.95 50.7909 120.748C51.2605 119.876 51.7972 118.937 51.9985 117.931C52.1998 116.857 51.7302 116.253 51.3276 115.918C51.1264 115.717 50.858 115.582 50.5226 115.515C51.3947 115.314 52.1998 115.18 52.9377 115.18C53.4074 115.247 53.877 115.247 54.3466 115.314C54.682 115.381 55.0846 115.381 55.42 115.381L57.1643 115.448C57.701 115.985 57.8352 116.388 57.6339 117.125C57.0972 119.138 55.4871 121.084 54.1453 122.761L53.877 123.096C52.2669 125.042 50.5897 127.055 48.9795 128.933C48.2416 129.805 47.5036 130.677 46.7656 131.549C46.4302 131.952 46.0277 132.354 45.6922 132.824C44.4847 134.233 43.2771 135.776 41.7341 136.782ZM57.8352 114.509C57.7681 114.442 57.7681 114.442 57.8352 114.509C57.6339 114.308 57.4997 114.308 57.3655 114.308C56.963 114.308 56.5605 114.308 56.158 114.241C55.8896 114.241 55.6213 114.174 55.42 114.174C59.4453 109.746 63.1351 105.721 66.9591 101.695C67.0262 101.628 67.0933 101.561 67.2275 101.427C67.2946 101.36 67.4287 101.293 67.4287 101.226C71.9236 96.5966 76.5527 91.9004 81.3159 87.2043C86.0792 82.6423 90.9766 77.8791 96.2766 73.7196C100.906 70.164 106.138 67.3463 111.841 65.4678C117.476 63.5893 123.648 62.3147 130.76 61.5096C137.737 60.7716 144.647 60.4362 150.551 60.2349C157.058 59.9666 163.968 59.8324 171.75 59.7653C178.392 59.6982 184.9 59.7653 191.273 60.1008C197.512 60.3691 204.02 61.04 211.265 62.0463C218.377 63.0526 224.616 64.1931 230.52 65.602C235.819 66.8766 240.516 68.3526 244.809 70.164C245.011 70.231 245.212 70.3652 245.413 70.4323C245.413 70.4323 245.413 70.4323 245.48 70.4323C249.64 72.3108 253.933 74.6588 258.831 77.6778C264.198 81.0322 269.632 84.5208 275.401 88.479C278.89 90.8941 282.244 93.1751 285.465 95.389C285.733 95.5903 286.068 95.7915 286.337 95.9928C286.672 96.1941 287.008 96.4624 287.343 96.6637C287.544 96.7979 287.746 96.9991 288.014 97.1333C289.289 98.0054 290.496 98.9447 291.771 99.8168C297.876 104.312 302.907 108.136 307.335 111.893C304.786 112.027 302.169 112.161 299.62 112.295C297.809 110.35 295.662 108.672 293.582 106.995L292.442 106.056C286.203 101.024 280.701 96.7308 275.468 92.9738C270.705 89.4853 265.607 85.9967 258.831 81.636C252.659 77.6107 247.09 74.0551 240.918 71.2374C235.417 68.688 229.245 66.9437 221.932 65.8032C215.827 64.864 209.186 64.0589 201.672 63.3881C194.963 62.7843 188.12 62.3818 180.807 62.1805C174.702 61.9792 168.195 61.9792 160.413 62.2476C154.979 62.4488 147.867 62.8514 140.756 64.126C133.443 65.4678 127.338 67.3463 122.173 70.0298C116.738 72.8475 111.707 76.6715 107.145 81.5018C103.052 85.8625 99.0272 91.3637 95.3373 97.9383C94.7335 99.0117 94.0627 100.555 95.0019 102.165C95.9411 103.775 97.7525 103.909 99.1613 103.976H99.5639C101.107 104.11 102.583 104.178 104.126 104.312C109.359 104.714 114.726 105.05 120.026 105.318L154.375 107.062C153.435 109.276 152.765 111.49 152.295 113.57C151.96 115.113 151.825 116.723 151.758 118.333C151.758 118.601 151.758 118.937 151.691 119.205L85.14 115.851L57.8352 114.509ZM89.7019 61.9792C89.8361 62.2476 90.0374 62.4488 90.1715 62.583C90.9095 63.321 91.6475 63.9919 92.3855 64.6627C93.6601 65.8032 94.8677 66.8096 95.7398 68.1513C96.4778 69.1576 96.7462 70.4323 96.5449 71.707C95.4715 70.8348 94.331 69.8956 93.2576 68.9564C92.9892 68.688 92.6538 68.4868 92.3184 68.2184C91.6475 67.6146 90.8424 67.0779 90.3057 66.407C90.0374 66.0716 89.8361 65.6691 89.7019 65.1324C89.7019 65.0653 89.769 65.0653 89.769 64.9982C89.8361 64.7969 89.769 64.5957 89.6348 64.4615C89.6348 64.4615 89.6348 64.4615 89.6348 64.3944C89.5678 64.3273 89.5678 64.2602 89.5678 64.1931C89.5007 63.3881 89.5678 62.6501 89.7019 61.9792ZM111.371 64.4615C106.34 66.1387 101.711 68.4868 97.4841 71.4386C97.5512 70.0298 97.2158 68.688 96.4778 67.5475C95.5386 66.0716 94.2639 64.9311 92.9892 63.8577C92.2513 63.1868 91.5133 62.5159 90.8424 61.8451C90.507 61.4425 90.1715 60.9058 90.1045 60.5033L90.2386 60.1679V60.1008C90.3057 60.1008 90.507 60.1008 90.6412 60.1008C91.9158 60.2349 93.5259 60.302 95.2031 60.302H96.8133C99.698 60.302 102.65 60.302 105.535 60.2349C106.944 60.2349 108.285 60.1008 109.56 60.0337C110.03 61.5767 110.633 63.0526 111.371 64.4615ZM65.9528 100.488C65.8186 100.488 65.7515 100.488 65.6844 100.488C65.4832 100.488 65.349 100.488 65.1477 100.488C62.7997 100.488 60.5858 100.488 58.4389 100.488C58.7744 100.152 59.0427 99.8168 59.3782 99.4814C59.982 98.8105 60.5858 98.1396 61.2566 97.4016C61.5921 97.4016 61.8604 97.4687 62.1959 97.4687C62.4642 97.4687 62.7326 97.4687 63.068 97.4687C64.7452 97.4016 66.5566 97.1333 67.9654 96.0599C69.3072 95.0536 70.4477 93.7118 71.5882 92.4371C71.9907 91.9004 72.4603 91.4308 72.8629 90.9612L82.6577 80.6297L83.7311 79.4892C85.14 77.9461 86.6159 76.336 88.0247 74.7259L88.226 74.4576C89.1652 73.3842 90.3728 71.9753 90.2386 70.2981C90.1045 69.0235 89.2994 67.883 88.4944 67.2121C88.6285 67.0108 88.8298 66.8096 88.964 66.6083C89.0311 66.5412 89.0311 66.4741 89.0981 66.407C89.2323 66.6754 89.3665 66.8766 89.5678 67.0779C90.2386 67.8159 91.0437 68.4197 91.7817 69.0235C92.1171 69.2918 92.4525 69.4931 92.7209 69.7614C93.7943 70.7007 94.9348 71.5728 96.0082 72.512C95.8069 72.6462 95.6057 72.7804 95.4715 72.9146C93.8614 74.1892 92.2513 75.531 90.6412 76.9398C90.507 77.074 90.3057 77.2082 90.1715 77.3424C89.9032 77.6107 89.6348 77.812 89.3665 78.0803C87.2197 79.9588 85.14 81.9714 83.0602 83.9841C82.1881 84.8562 81.3159 85.6613 80.4438 86.5334C78.9679 88.0093 77.4248 89.4853 75.9489 90.9612C72.6616 94.2485 69.6426 97.3346 67.1604 99.951L66.5566 100.555C66.4224 100.555 66.2882 100.555 66.1541 100.555C66.0199 100.488 66.0199 100.488 65.9528 100.488ZM82.121 74.3905L86.7501 69.2247C86.8842 69.0235 87.0855 68.8893 87.2197 68.688C87.4209 68.4197 87.6893 68.1513 87.8906 67.9501C88.5614 68.5538 89.1652 69.426 89.2323 70.2981C89.2994 71.5728 88.2931 72.7804 87.4209 73.7867L87.2197 74.0551C85.8779 75.6652 84.3349 77.2082 82.926 78.7512L72.1249 90.2903C71.6553 90.7599 71.2527 91.2966 70.7831 91.7663C69.7097 92.9738 68.5692 94.3156 67.2946 95.2548C66.087 96.1941 64.4769 96.3953 62.9338 96.4624C62.6655 96.4624 62.3971 96.4624 62.1288 96.4624C65.8857 92.1688 70.7831 86.5334 75.9489 81.0322C77.8274 79.0866 79.9742 76.8057 82.121 74.3905ZM161.553 56.0084V55.9413C161.553 55.9413 161.62 55.9413 161.62 55.8742L161.687 55.8071C161.754 55.7401 161.956 55.673 162.09 55.673H162.157C163.23 55.4717 164.438 55.4717 165.578 55.4717H166.316C167.859 55.4717 169.47 55.4717 171.013 55.4717C174.3 55.5388 177.52 55.6059 180.807 55.673C187.047 55.8071 194.292 56.0755 201.47 56.7464C207.575 57.2831 214.016 58.2223 221.261 59.5641C225.018 60.302 228.373 60.9729 231.459 61.7109C230.721 62.4488 230.184 63.3881 229.714 64.3273C224.012 62.9855 217.974 61.9121 211.198 60.9729C203.953 59.9666 197.378 59.3628 191.139 59.0274C184.766 58.759 178.191 58.6248 171.549 58.6919C168.061 58.759 164.706 58.8261 161.553 58.8932C161.553 57.9539 161.486 57.0147 161.553 56.0084ZM241.857 64.7298C241.924 64.7969 241.924 64.7969 241.992 64.864C241.857 64.9311 241.79 65.0653 241.723 65.1324C241.656 65.1994 241.656 65.1994 241.589 65.2665C240.918 65.7361 240.381 66.407 239.845 67.145C237.027 66.2058 234.075 65.3336 230.855 64.5957C231.258 63.5893 231.928 62.7172 232.733 62.0463C235.35 62.7172 237.765 63.3881 240.046 64.126L240.18 64.1931C240.985 64.3273 241.522 64.5957 241.857 64.7298ZM155.314 163.014L269.766 167.777C269.9 167.777 270.101 167.777 270.236 167.777C270.906 167.777 271.577 167.777 272.114 168.045C272.517 168.246 272.584 168.448 272.584 168.649C272.651 169.253 272.248 170.259 271.779 170.595C271.309 170.93 270.571 170.863 269.9 170.863L179.331 168.112C176.245 167.978 173.226 167.911 170.14 167.844L156.924 167.509C156.253 166.167 155.784 164.691 155.314 163.014ZM170.073 168.917C173.159 168.984 176.178 169.119 179.264 169.186L269.833 171.936C270.034 171.936 270.169 171.936 270.37 171.936C271.041 171.936 271.712 171.869 272.382 171.467C273.187 170.93 273.724 169.588 273.657 168.649C273.657 168.179 273.456 167.576 272.584 167.173C271.846 166.905 271.041 166.838 270.303 166.838C270.101 166.838 269.967 166.838 269.833 166.838L155.113 162.074C155.113 161.94 155.046 161.806 155.046 161.672C153.771 155.299 153.435 148.657 153.033 142.216V142.015C152.63 135.776 152.295 129.067 152.429 122.358C152.429 121.687 152.496 120.95 152.496 120.212L198.317 122.493L262.856 125.713C263.996 125.713 265.07 125.78 266.143 125.847L283.116 126.786C283.184 127.927 283.251 129.134 283.318 130.275L283.385 131.013C283.787 138.057 283.787 145.101 283.72 151.005C283.653 157.647 283.318 164.221 282.714 170.527V170.595C282.379 173.748 282.11 176.968 281.439 180.121L281.372 180.456C281.305 180.859 281.171 181.262 281.104 181.664C280.634 183.073 280.232 184.348 279.091 184.616C278.152 184.884 277.079 184.951 276.072 184.951H275.67C274.06 185.018 272.382 185.018 270.839 185.018C267.552 185.018 264.734 184.951 262.118 184.884L215.291 183.207C211.399 183.073 207.441 182.872 203.55 182.737L201.001 182.67C199.055 182.603 197.043 182.536 195.03 182.469C190.066 182.335 184.9 182.134 179.868 181.731C173.629 181.194 168.061 179.115 163.7 175.693C161.352 173.815 159.406 171.735 157.997 169.521C157.796 169.253 157.662 168.917 157.461 168.582L170.073 168.917ZM298.882 113.369C298.949 113.369 298.949 113.369 299.016 113.369C299.486 113.905 299.62 114.241 299.486 114.576C299.285 115.046 298.211 115.113 297.607 115.113H297.339C294.32 115.314 291.301 115.113 288.349 114.979H288.014C286.068 114.845 284.056 114.777 282.043 114.643C281.976 114.375 281.842 114.107 281.775 113.838C281.708 113.704 281.641 113.57 281.506 113.503C281.372 113.033 281.171 112.564 280.97 112.027C282.043 112.094 283.116 112.161 284.19 112.161L291.234 112.496C291.502 112.496 291.704 112.564 291.972 112.564C292.375 112.564 292.777 112.631 293.18 112.631C293.515 112.631 293.783 112.631 294.119 112.429C294.521 112.362 294.723 112.161 294.857 111.893C295.058 111.49 294.723 111.088 294.656 110.953C294.119 110.215 293.314 109.612 292.576 109.075C292.308 108.941 292.106 108.74 291.905 108.605C291.033 107.934 290.094 107.196 289.221 106.526L287.276 105.05C284.995 103.305 282.58 101.427 280.165 99.6826C275.133 96.0599 269.699 92.3701 262.99 88.0093C258.026 84.8562 252.256 81.1664 246.352 77.9462C240.046 74.5247 234.344 72.2437 228.842 70.969C222.872 69.5602 216.699 68.8893 210.661 68.2184L208.716 68.0171C202.879 67.4133 196.64 66.8766 188.925 66.4741C183.223 66.1387 176.916 66.0045 169.201 66.0716C168.396 66.0716 167.658 66.0716 166.92 66.0716C166.853 66.0045 166.719 66.0045 166.585 66.0045C166.518 66.0045 166.383 66.0716 166.316 66.1387C159.943 66.2729 154.576 66.5412 149.611 67.0108C141.494 67.8159 135.389 69.0905 129.753 71.0361C123.917 73.0487 118.55 76.1348 113.921 80.0259C109.56 83.7157 105.602 88.3448 101.308 94.651C101.107 94.9194 100.973 95.1207 100.771 95.389C100.235 96.127 99.698 96.932 99.3626 97.7371C99.1613 98.2067 99.0942 98.6092 99.1613 99.0788C99.2955 100.085 99.8993 100.823 100.839 101.091C101.509 101.293 102.247 101.36 102.985 101.36C103.187 101.36 103.455 101.36 103.656 101.36L109.627 101.762C111.975 101.897 114.457 102.031 116.805 102.165C117.879 102.232 118.952 102.299 120.026 102.366C124.051 102.567 128.143 102.769 132.102 102.97L135.255 103.104C142.031 103.372 148.806 103.708 155.582 104.043C155.381 104.446 155.18 104.848 154.979 105.318C154.911 105.385 154.911 105.385 154.844 105.452C154.777 105.653 154.71 105.788 154.576 105.989L119.892 104.245C114.659 103.976 109.292 103.574 104.059 103.238C102.516 103.104 101.04 103.037 99.4968 102.903H99.0942C97.7525 102.836 96.4107 102.769 95.7398 101.628C95.2031 100.689 95.3373 99.7497 96.0753 98.408C99.7651 91.9675 103.656 86.4663 107.749 82.1727C112.176 77.4094 117.141 73.6525 122.508 70.9019C127.607 68.2855 133.645 66.407 140.823 65.0653C147.867 63.7906 154.979 63.4552 160.346 63.2539C168.061 63.0526 174.568 62.9855 180.673 63.1868C187.986 63.3881 194.762 63.7906 201.47 64.3944C208.984 65.0653 215.559 65.8703 221.664 66.8096C228.909 67.883 235.014 69.6272 240.381 72.1095C246.486 74.9272 252.055 78.4829 258.16 82.441C264.869 86.8018 269.967 90.2903 274.73 93.7118C279.896 97.4687 285.465 101.762 291.637 106.794L292.777 107.733C294.656 109.343 296.601 110.953 298.345 112.698C298.345 112.765 298.345 112.832 298.345 112.832C298.345 113.167 298.614 113.369 298.882 113.369ZM263.728 113.436H263.527C263.46 113.167 263.393 112.899 263.326 112.631C264.332 112.765 265.271 112.832 266.277 112.832C267.284 112.832 268.357 112.765 269.431 112.564C269.833 113.301 270.303 113.972 270.839 114.509C270.839 114.777 271.041 114.979 271.309 114.979C271.712 115.381 272.114 115.717 272.517 116.052C272.919 116.388 273.255 116.723 273.657 117.058C274.529 117.931 274.865 118.534 274.663 119.205C274.596 119.608 274.328 120.077 273.322 120.212C272.248 120.279 271.108 120.346 269.967 120.346C269.632 120.346 269.229 120.346 268.894 120.346C267.888 120.413 266.747 120.413 265.741 120.144C264.734 119.876 264.064 119.138 263.862 117.998C263.728 117.327 263.728 116.589 263.728 115.851C263.728 115.381 263.728 114.844 263.661 114.375C263.929 114.375 264.198 114.174 264.198 113.905C264.198 113.704 263.996 113.436 263.728 113.436ZM281.037 111.088L280.03 100.957C282.244 102.567 284.458 104.245 286.605 105.922L288.551 107.398C289.423 108.069 290.362 108.807 291.234 109.477C291.435 109.679 291.637 109.813 291.905 110.014C292.576 110.484 293.247 111.02 293.716 111.624C293.247 111.758 292.643 111.691 292.039 111.624C291.771 111.557 291.57 111.557 291.301 111.557L284.257 111.222C283.184 111.155 282.11 111.155 281.037 111.088ZM280.03 111.02C277.749 110.886 275.536 110.752 273.322 110.618C272.449 110.551 271.644 110.484 270.839 110.417C270.772 109.209 270.705 107.934 270.638 106.526C270.772 106.459 270.839 106.391 270.906 106.257C271.108 106.123 271.242 105.922 271.376 105.721C272.382 104.446 272.114 102.635 271.376 101.561C271.108 101.159 270.705 100.823 270.303 100.488C270.303 98.2067 270.236 96.0599 270.303 94.1143C273.523 96.2612 276.475 98.3409 279.225 100.286C279.091 100.421 279.024 100.555 279.024 100.689L280.03 111.02ZM262.722 111.49C261.917 110.35 260.776 109.612 259.77 109.075C259.636 109.008 259.502 108.941 259.367 108.874C258.629 108.471 257.959 108.136 257.489 107.532C257.086 106.995 256.952 106.257 256.885 105.653C256.818 104.848 256.751 104.043 256.751 103.171C256.885 103.641 257.019 104.11 257.221 104.513C258.026 106.257 259.837 106.593 261.112 106.727C262.319 106.861 263.594 106.861 264.801 106.861C265.271 106.861 265.741 106.861 266.21 106.861C266.412 106.861 266.546 106.861 266.747 106.861C267.418 106.861 268.089 106.794 268.827 106.794C268.625 107.129 268.424 107.532 268.357 108.002C268.223 109.008 268.491 110.215 269.028 111.624C266.881 111.893 264.801 111.826 262.722 111.49ZM270.37 102.232C270.906 102.97 271.041 104.379 270.437 105.184C270.303 105.318 270.101 105.519 269.967 105.653C268.827 105.788 267.619 105.855 266.277 105.855C265.808 105.855 265.338 105.855 264.869 105.855C263.661 105.855 262.453 105.855 261.246 105.721C259.569 105.519 258.629 105.05 258.16 104.043C257.422 102.635 257.355 100.555 257.958 99.0788C258.361 98.1396 259.032 97.4687 259.837 97.2004C260.91 96.7979 262.185 96.7979 263.326 97.2004C263.661 97.4016 263.996 97.6029 264.332 97.8042C265.741 98.6763 267.082 99.5485 268.29 100.421L268.625 100.689C269.296 101.159 269.967 101.628 270.37 102.232ZM269.498 108.069C269.498 107.867 269.565 107.666 269.632 107.532C269.699 108.404 269.699 109.276 269.766 110.148C269.565 109.343 269.431 108.672 269.498 108.069ZM259.502 96.2611C258.361 96.5966 257.489 97.4687 257.019 98.6763C256.952 98.8105 256.885 98.9447 256.885 99.0788C256.885 98.9447 256.952 98.8105 256.952 98.7434C257.288 97.4687 258.294 96.4624 259.434 96.2611C259.502 96.2611 259.502 96.2611 259.569 96.2611H259.502ZM269.296 99.7497L269.028 99.6155C267.82 98.6763 266.479 97.8042 265.07 96.932C263.258 95.8586 261.38 94.8523 259.3 95.2548C257.757 95.5232 256.483 96.7979 256.013 98.4751C255.812 99.2801 255.812 100.085 255.812 100.89V101.561C255.812 102.97 255.745 104.379 255.946 105.788C256.013 106.593 256.214 107.465 256.751 108.203C257.355 108.941 258.227 109.41 258.965 109.813L175.709 104.11C172.958 103.909 170.275 103.842 167.591 103.708C167.524 103.708 167.457 103.708 167.39 103.708C167.457 96.6637 167.457 89.7536 167.457 83.1119C167.39 79.4221 167.323 75.6652 167.256 72.0424C167.189 70.4323 167.121 68.8222 167.121 67.2121C167.792 67.2121 168.463 67.2121 169.134 67.2121C176.849 67.2121 183.088 67.2792 188.791 67.6146C196.439 68.0171 202.745 68.4868 208.515 69.1576L210.46 69.3589C216.431 69.9627 222.67 70.7007 228.574 72.0424C234.008 73.25 239.643 75.531 245.816 78.8854C251.719 82.1056 257.489 85.7954 262.386 88.9486C264.869 90.4916 267.15 92.0346 269.296 93.4435C269.229 95.389 269.229 97.4687 269.296 99.7497ZM166.115 67.2792C166.182 68.9564 166.182 70.5665 166.249 72.1095C166.383 75.7322 166.451 79.4892 166.451 83.179C166.451 89.7536 166.451 96.6637 166.383 103.708C165.645 103.708 164.84 103.641 164.102 103.574C161.754 103.507 159.339 103.372 156.924 103.238L157.058 102.098C157.259 100.286 157.394 98.5421 157.595 96.7308C157.863 94.1143 158.132 91.4308 158.534 88.4119L161.151 67.3463C162.761 67.3463 164.371 67.2792 166.115 67.2792ZM157.528 88.3448C157.125 91.3637 156.857 94.1143 156.589 96.6637C156.387 98.408 156.186 100.219 156.052 102.031L155.918 103.238C149.008 102.903 142.098 102.567 135.255 102.232L132.102 102.098C128.143 101.897 124.051 101.695 120.026 101.494C118.952 101.427 117.879 101.36 116.805 101.293C114.457 101.159 112.042 101.024 109.627 100.89L103.656 100.488C103.388 100.421 103.187 100.421 102.918 100.421C102.247 100.421 101.576 100.421 100.973 100.219C100.436 100.085 100.101 99.6155 100.033 99.0788C100.033 98.8105 100.033 98.5421 100.168 98.2738C100.436 97.5358 100.973 96.7979 101.442 96.127C101.644 95.8586 101.845 95.6574 101.979 95.389C106.206 89.1498 110.164 84.5879 114.39 80.9651C118.952 77.074 124.185 74.1221 129.955 72.1095C135.523 70.1639 141.628 68.8893 149.611 68.0842C152.899 67.7488 156.32 67.5475 160.144 67.4133L157.528 88.3448ZM155.784 105.922C155.985 105.452 156.253 105.05 156.454 104.58C156.522 104.513 156.522 104.446 156.589 104.379C156.656 104.312 156.656 104.245 156.723 104.178C159.205 104.312 161.62 104.446 164.102 104.513C165.243 104.58 166.451 104.58 167.591 104.647C170.207 104.781 172.958 104.848 175.642 105.05L260.91 110.953C261.514 111.423 261.984 111.96 262.319 112.631C262.453 112.832 262.52 113.1 262.588 113.369L175.575 107.129C173.092 106.995 170.543 106.861 168.061 106.727L155.716 106.123C155.716 106.056 155.784 105.989 155.784 105.922ZM271.98 114.107C271.376 113.503 270.839 112.832 270.437 111.96V111.893C270.437 111.826 270.37 111.758 270.303 111.624C270.303 111.557 270.236 111.49 270.236 111.423H270.303C270.37 111.423 270.437 111.423 270.437 111.356C271.376 111.423 272.248 111.49 273.255 111.557C275.468 111.691 277.682 111.826 279.963 111.96C279.963 112.027 279.963 112.094 279.963 112.161C280.299 112.966 280.567 113.771 280.836 114.509C278.085 114.375 275.267 114.174 272.584 114.039L271.98 114.107ZM153.1 113.771C153.57 111.624 154.308 109.343 155.247 107.062L167.994 107.733C170.476 107.867 173.025 107.934 175.507 108.136L262.789 114.375C262.856 114.912 262.856 115.381 262.856 115.918C262.856 116.656 262.856 117.461 262.99 118.266C263.258 119.809 264.198 120.815 265.607 121.218C266.412 121.419 267.217 121.486 268.022 121.486C268.357 121.486 268.693 121.486 269.162 121.486C269.498 121.486 269.9 121.486 270.236 121.486C271.376 121.419 272.517 121.419 273.657 121.285C274.798 121.151 275.603 120.547 275.871 119.541C276.274 118.065 274.999 116.857 274.529 116.388C274.127 115.985 273.724 115.65 273.322 115.314C273.255 115.247 273.187 115.18 273.12 115.18C275.737 115.314 278.42 115.448 281.104 115.65C281.708 117.595 282.177 119.541 282.513 121.352C282.781 122.828 282.915 124.371 283.049 125.914L266.21 124.975C265.137 124.975 263.996 124.908 262.923 124.841L152.496 119.339C152.63 117.461 152.765 115.582 153.1 113.771ZM283.922 122.895C283.653 120.681 283.116 118.333 282.311 115.65C284.19 115.784 286.068 115.851 288.014 115.985H288.349C290.362 116.052 292.375 116.186 294.454 116.186C295.394 116.186 296.4 116.186 297.339 116.052H297.607C298.413 115.985 299.888 115.918 300.358 114.912C300.626 114.308 300.492 113.771 300.224 113.301C302.907 113.167 305.591 113.033 308.274 112.899C310.019 114.375 311.83 115.918 313.574 117.394L315.117 118.736C317.6 120.882 319.881 122.761 321.96 124.438C323.906 125.981 325.852 127.256 327.864 128.396C324.107 128.128 320.417 127.927 316.728 127.725C315.52 127.658 314.379 127.591 313.172 127.524L284.19 125.914C284.123 124.908 284.056 123.901 283.922 122.895ZM248.231 67.6817C250.176 68.688 252.055 69.7614 253.933 70.7677L259.166 73.6525C264.466 76.4702 269.9 79.4892 275.2 82.5081C278.487 84.3866 282.11 86.5334 285.8 88.8144C286.404 89.1498 286.94 89.5524 287.544 89.8878C287.88 90.0891 288.215 90.2903 288.484 90.4916C288.551 90.5587 288.685 90.6258 288.752 90.6929C294.454 94.3827 300.425 98.1396 306.396 102.098C308.744 103.641 311.226 105.318 313.709 106.995C314.312 107.398 314.916 107.8 315.52 108.203C315.654 108.27 315.721 108.337 315.855 108.404C316.862 109.142 317.935 109.88 318.941 110.618C319.277 110.886 319.612 111.155 319.948 111.423L320.015 111.49L308.61 111.893C305.524 109.276 302.438 106.727 299.218 104.245C293.985 100.219 288.484 96.3282 283.251 92.7055C278.622 89.5524 272.517 85.3258 266.344 81.3005C260.441 77.4765 255.074 74.0551 249.304 71.1703C246.688 69.8285 243.87 68.6209 240.851 67.5475C241.254 66.9437 241.656 66.5412 242.193 66.2058C242.26 66.1387 242.394 66.0045 242.461 65.9374L242.528 65.8703C244.608 65.7362 246.419 66.7425 248.231 67.6817ZM368.385 132.22C368.922 131.415 370.13 131.214 371.002 131.214C371.069 131.214 371.069 131.214 371.136 131.214C372.813 131.214 374.624 131.818 376.503 133.025C379.052 134.635 381.534 136.782 383.681 139.265C384.889 140.74 386.633 142.954 387.17 145.504C387.438 146.711 387.304 148.388 386.499 149.328C386.029 149.864 385.426 150.066 384.621 150.066C384.151 150.066 383.681 149.999 383.279 149.864C383.748 144.564 382.004 140.002 378.448 137.52C375.564 135.44 371.941 134.703 368.184 135.306L368.251 135.239C368.318 135.038 368.251 134.904 368.117 134.77C367.916 133.897 367.916 132.958 368.385 132.22ZM374.088 144.766C374.021 144.699 374.021 144.699 373.954 144.632C373.618 144.296 373.283 143.961 372.947 143.625C370.8 141.277 369.257 138.795 368.452 136.313C371.874 135.776 375.228 136.447 377.912 138.325C381.065 140.539 382.675 144.766 382.34 149.663C381.132 149.328 380.059 148.791 379.119 148.321C377.308 147.382 375.631 146.175 374.088 144.766ZM292.039 167.039C294.857 161.202 299.083 156.104 304.383 152.28C309.415 148.724 315.319 146.309 321.424 145.37C327.126 144.497 333.231 144.967 338.934 146.644C344.167 148.187 348.997 150.804 353.156 154.158C351.882 154.628 350.607 155.097 349.399 155.567C347.387 154.024 345.173 152.749 342.825 151.676C336.988 148.992 330.548 147.852 324.174 148.321C318.136 148.791 312.3 150.804 307.201 154.158C302.371 157.378 298.345 161.873 295.528 167.173C292.911 172.205 291.368 178.041 291.1 184.012C290.094 184.012 289.087 184.079 288.148 184.079C288.148 178.243 289.49 172.272 292.039 167.039ZM113.787 42.8592C113.921 43.7313 114.122 44.5364 114.256 45.4085C114.726 47.7566 115.195 50.1718 115.866 52.5198C116.47 54.5325 117.745 55.3375 119.556 56.0084C119.959 56.1426 120.428 56.2768 120.831 56.4109C121.435 56.6122 122.038 56.8135 122.642 57.0818C122.105 57.1489 121.636 57.216 121.099 57.2831C120.026 57.4172 118.885 57.6185 117.745 57.8198C116.336 58.0881 114.86 58.2894 113.451 58.4907C113.854 57.8869 114.122 57.1489 114.256 56.4109V56.3438C114.256 56.2768 114.256 56.2768 114.256 56.2097V56.1426C114.39 54.935 114.256 53.6603 114.055 52.4527C113.988 52.0502 113.988 51.6477 113.921 51.2452C113.652 48.5616 113.25 45.811 112.914 43.1946L112.713 41.4503C112.512 39.7731 112.311 38.0959 112.042 36.4187C112.042 36.2846 111.975 36.1504 111.975 36.0162C111.975 35.882 111.908 35.7479 111.908 35.6808C111.908 35.6137 111.908 35.5466 111.908 35.4124C111.908 35.3453 111.975 35.2782 111.975 35.2782C112.042 35.3453 112.109 35.4124 112.176 35.4795C112.243 35.5466 112.243 35.6137 112.311 35.6808C112.512 36.2175 112.646 36.8213 112.713 37.4921C112.78 37.7605 112.78 37.9617 112.847 38.2301C113.116 39.3035 113.317 40.444 113.518 41.5174C113.585 41.8529 113.652 42.1212 113.719 42.4566L113.787 42.8592ZM57.5668 101.494C58.1706 101.494 58.7744 101.494 59.3782 101.561C59.7807 101.561 60.2503 101.561 60.6529 101.561C61.3237 101.561 61.9946 101.561 62.5984 101.561H62.6655C62.7326 101.561 62.7997 101.561 62.8668 101.561C63.7389 101.561 64.6781 101.561 65.5503 101.561C61.6592 105.586 57.9693 109.679 53.9441 114.107C53.5415 114.107 53.2061 114.107 52.8036 114.107C52.6694 114.107 52.5352 114.107 52.401 114.107C50.7909 113.905 49.2479 113.503 47.772 112.631C48.2416 112.228 48.6441 111.758 49.1137 111.289C50.9251 109.343 52.6023 107.331 54.2795 105.318C54.8833 104.513 55.4871 103.842 56.0909 103.104C56.6276 102.567 57.0972 102.031 57.5668 101.494ZM34.3544 120.212C34.7569 119.406 35.629 118.736 37.0379 117.998C38.0442 117.461 39.0505 117.26 40.0569 117.193C40.0569 117.394 40.0569 117.595 40.0569 117.863C40.0569 118.4 40.0569 118.87 39.9227 119.272C39.7214 119.809 39.386 120.346 39.1176 120.882C38.5138 121.017 37.843 121.017 36.9708 120.95C36.7695 120.95 36.6354 120.95 36.4341 120.95C35.7632 120.882 35.0923 120.882 34.4886 120.681C34.3544 120.614 34.2873 120.547 34.2202 120.547C34.2202 120.48 34.2873 120.346 34.3544 120.212ZM28.1823 187.903C28.1152 187.299 28.1152 186.696 28.1823 186.159C28.1823 185.891 28.5177 185.891 29.3228 185.958C29.524 186.025 29.7253 186.025 29.8595 186.025C30.3962 186.763 30.9329 187.568 31.9392 187.97C32.7443 188.373 33.6164 188.373 34.4215 188.373H35.8303C37.105 188.306 38.3126 188.306 39.5872 188.306C39.6543 188.306 39.6543 188.306 39.7214 188.306V189.648H28.8532C28.7861 189.648 28.6519 189.648 28.5848 189.648C28.4506 189.648 28.3165 189.648 28.2494 189.648C28.2494 189.513 28.2494 189.379 28.2494 189.245C28.2494 189.111 28.2494 188.977 28.2494 188.842C28.2494 188.507 28.1823 188.239 28.1823 187.903ZM396.227 194.21H395.422C393.946 194.21 392.403 194.21 390.927 194.277C387.639 194.411 384.285 194.612 381.065 194.813C377.643 195.015 374.155 195.216 370.666 195.35C369.928 195.35 369.123 195.417 368.251 195.417C368.251 193.136 368.251 191.258 368.184 189.379C368.184 188.641 368.117 187.903 368.05 187.165C372.276 187.299 377.241 187.501 382.34 187.836C388.713 188.239 395.355 188.775 402.063 189.849C401.996 190.184 401.795 190.52 401.594 190.788L401.46 191.056C401.057 191.794 400.587 192.599 400.051 193.203C399.246 194.075 397.971 194.21 396.629 194.21C396.495 194.21 396.361 194.21 396.227 194.21Z" fill="#B1C0FB"/>
</svg>
